<svg xmlns="http://www.w3.org/2000/svg" viewBox="0 0 1116.26 175.73"><title>AVINA</title><g id="Ebene_2" data-name="Ebene 2"><g id="LOGO"><g id="AVINA"><polygon id="V" points="308 136.92 261.06 0 231.43 0 294.7 175.73 320.81 175.73 384.07 0 354.95 0 308 136.92"/><rect id="I" x="537.04" width="27.87" height="175.73"/><polygon id="N" points="849 134.01 766.91 0 732.51 0 732.51 175.73 759.88 175.73 759.88 38.71 844.98 175.73 876.36 175.73 876.36 0 849 0 849 134.01"/><polygon id="A" points="1047.72 0 1020.32 0 1060.27 107.45 1020.32 107.45 1020.32 133.31 1070.06 133.31 1085.88 175.73 1116.26 175.73 1047.72 0"/><polygon id="A-2" data-name="A" points="68.54 0 0 175.73 30.38 175.73 46.19 133.31 95.94 133.26 95.94 107.4 55.98 107.45 95.94 0 68.54 0"/></g></g></g></svg>