<?xml version="1.0" encoding="UTF-8" standalone="no"?>
<!-- Created with Inkscape (http://www.inkscape.org/) -->

<svg
   width="65.47316mm"
   height="47.442715mm"
   viewBox="0 0 65.47316 47.442715"
   version="1.1"
   id="svg1"
   inkscape:version="1.3-alpha (d5f0437d, 2023-05-14)"
   sodipodi:docname="litter_cycle.svg"
   xmlns:inkscape="http://www.inkscape.org/namespaces/inkscape"
   xmlns:sodipodi="http://sodipodi.sourceforge.net/DTD/sodipodi-0.dtd"
   xmlns="http://www.w3.org/2000/svg"
   xmlns:svg="http://www.w3.org/2000/svg">
  <sodipodi:namedview
     id="namedview1"
     pagecolor="#ffffff"
     bordercolor="#000000"
     borderopacity="0.25"
     inkscape:showpageshadow="2"
     inkscape:pageopacity="0.0"
     inkscape:pagecheckerboard="0"
     inkscape:deskcolor="#d1d1d1"
     inkscape:document-units="mm"
     inkscape:zoom="0.92737795"
     inkscape:cx="123.46638"
     inkscape:cy="90.038803"
     inkscape:window-width="1396"
     inkscape:window-height="1212"
     inkscape:window-x="0"
     inkscape:window-y="25"
     inkscape:window-maximized="0"
     inkscape:current-layer="layer1" />
  <defs
     id="defs1" />
  <g
     inkscape:label="Layer 1"
     inkscape:groupmode="layer"
     id="layer1"
     transform="translate(-72.397431,-124.77865)">
    <path
       style="color:#000000;solid-color:#000000;stroke-width:0.264584;stroke-miterlimit:3.8637;-inkscape-stroke:none"
       d="m 89.460819,148.28641 c 0,0 -1.546212,0.37643 -3.091874,1.7889 -1.545662,1.41247 -3.10661,3.9024 -3.10661,8.03431 0,1.24022 0.483177,2.29403 1.171349,3.15148 0.688171,0.85744 1.58779,1.5396 2.482684,2.07739 1.789788,1.07559 3.571637,1.57013 3.571637,1.57013 l 0.08141,-0.55833 c 0,0 -1.748297,-0.48847 -3.488628,-1.53433 -0.870164,-0.52293 -1.73544,-1.18597 -2.371063,-1.97795 -0.635621,-0.79196 -1.035167,-1.69162 -1.035167,-2.72839 0,-3.9358 1.453243,-6.21722 2.921679,-7.55914 1.468435,-1.3419 2.936415,-1.70301 2.936415,-1.70301 z"
       id="path5424" />
    <path
       style="fill-rule:evenodd;stroke-width:0.867373"
       d="m 90.528737,164.70662 -1.213784,0.8067 3.739394,-0.29785 -3.332314,-1.72263 z"
       id="path5420" />
    <path
       id="path58-3"
       style="fill:#8b4513;fill-rule:evenodd;stroke-width:0.686523"
       d="m 110.15779,164.10901 c 1.03937,0.20438 0.81179,3.89608 0.23281,4.12114 0.0886,-1.23938 -0.23057,-0.0399 -0.25089,-0.8673 -0.27653,0.57564 -0.72725,-0.0693 -1.04707,0.78734 -0.62486,-0.30575 -1.05704,0.54811 -0.82115,1.79594 -0.53722,0.78934 -1.10559,-1.28451 -1.81527,-0.78668 -0.66263,-0.0571 -1.72691,-1.28138 -1.60385,0.88545 -0.1949,0.63579 -0.004,-1.03875 -0.22196,-0.54484 -0.0674,-0.44913 -0.28462,-1.44214 -0.29342,-0.39827 -0.51282,-1.08659 -1.2665,0.51804 -1.8639,0.87339 -0.78859,-0.46157 -1.46011,0.1321 -2.18627,0.73187 -0.486104,0.0115 -0.819015,1.24935 -1.098029,0.37514 -0.554557,0.6581 -0.978765,-2.0036 -1.326086,-2.8605 -0.246742,-1.33455 -0.699094,-0.10661 -0.854262,-0.0793 -0.409225,-0.69686 0.04085,1.94405 -0.536827,0.66268 -0.311872,0.0616 -0.08466,0.83415 -0.398704,-0.17305 -0.385919,-0.91542 -0.221947,0.84555 -0.436727,-0.33751 -0.356063,0.45991 0.05598,2.13321 -0.384987,0.74586 -0.02577,1.20145 -0.270718,-1.64297 -0.566398,-1.26978 -0.568591,-1.89888 0.180019,-4.29997 1.210875,-4.45607 1.471744,-0.69034 2.996509,-0.50972 4.491005,-0.72997 1.77371,0.33056 3.55419,0.37738 5.33277,0.24086 1.49765,0.0143 3.0085,0.33129 4.43834,1.2836 z" />
    <path
       id="path58-3-3"
       style="fill:#b8860b;fill-rule:evenodd;stroke-width:0.585321"
       d="m 110.15779,163.69268 c 1.03937,0.14858 0.81179,2.8321 0.23281,2.99569 0.0886,-0.90092 -0.23057,-0.029 -0.25089,-0.63045 -0.27653,0.41844 -0.72725,-0.0504 -1.04707,0.57232 -0.62486,-0.22224 -1.05704,0.39844 -0.82115,1.30549 -0.53722,0.57377 -1.10559,-0.93373 -1.81527,-0.57185 -0.66263,-0.0415 -1.72691,-0.93144 -1.60385,0.64364 -0.1949,0.46216 -0.004,-0.75507 -0.22196,-0.39604 -0.0674,-0.32648 -0.28462,-1.04831 -0.29342,-0.28951 -0.51282,-0.78985 -1.2665,0.37656 -1.8639,0.63487 -0.78859,-0.33552 -1.46011,0.096 -2.18627,0.532 -0.486104,0.009 -0.819015,0.90817 -1.098029,0.27269 -0.554557,0.47838 -0.978765,-1.45642 -1.326086,-2.07932 -0.246742,-0.97008 -0.699094,-0.0775 -0.854262,-0.0576 -0.409225,-0.50654 0.04085,1.41314 -0.536827,0.48172 -0.311872,0.0448 -0.08466,0.60634 -0.398704,-0.1258 -0.385919,-0.66543 -0.221947,0.61463 -0.436727,-0.24534 -0.356063,0.33432 0.05598,1.55064 -0.384987,0.54217 -0.02577,0.87334 -0.270718,-1.19429 -0.566398,-0.923 -0.568591,-1.38032 0.180019,-3.12569 1.210875,-3.23915 1.471744,-0.50181 2.996509,-0.37051 4.491005,-0.53061 1.77371,0.24028 3.55419,0.27431 5.33277,0.17507 1.49765,0.0104 3.0085,0.24082 4.43834,0.93305 z" />
    <path
       id="path60-5"
       style="fill:#32cd32;fill-rule:evenodd;stroke-width:0.479683"
       d="m 110.37207,162.95346 c 0.24574,0.41863 0.63857,1.7763 0.17855,1.57771 -0.23267,-0.49067 -1.42749,0.57195 -2.054,0.0622 -0.22233,0.42986 -0.376,1.20133 -0.78377,0.94943 -0.4114,-0.45123 -1.39304,-0.80574 -2.15918,-0.69525 -0.85276,0.0455 -1.79187,-0.31974 -2.37392,0.52507 -0.51622,-0.38366 -1.26812,0.58358 -1.89901,0.21857 -0.34396,0.23463 -0.80055,0.35324 -0.98327,0.035 -0.26123,0.42399 -0.757749,0.0402 -0.694961,0.24322 -0.370044,0.35799 -0.522982,0.30734 -0.793654,0.007 -0.07375,0.33295 -0.816837,-0.68415 -0.762128,-1.11142 0.402076,-1.07348 -0.889875,-0.32945 -1.357601,-0.29015 -0.373746,0.34657 -0.873675,0.31564 -1.063384,0.26894 -0.257861,0.23526 -0.481582,-0.22511 -0.361793,0.33417 0.09106,0.40783 -0.651187,-1.01427 -0.437286,-0.14365 -0.915447,-0.80517 -0.128941,-2.13268 0.971745,-2.13026 2.803605,-0.70574 5.717032,-0.22587 8.568692,-0.42102 1.71318,-0.0527 3.4824,-0.39245 5.14523,0.20186 0.27089,0.11521 0.66818,0.16746 0.85974,0.36865 z" />
    <path
       id="path62-6"
       style="fill:#228b22;fill-rule:evenodd;stroke-width:0.479683"
       d="m 109.5605,162.52522 c 1.36849,-0.15717 0.95542,2.16158 -0.26485,1.67346 -0.92192,-0.73412 -1.91181,0.85141 -2.91084,0.0908 -1.01032,-0.31459 -2.27129,-0.72365 -3.1666,0.0852 -1.02402,0.62361 -2.33833,0.048 -3.358163,0.6865 -0.91524,0.35638 -1.518531,-0.73707 -1.35071,-1.31894 -1.144058,-0.20528 -2.301706,0.59645 -3.417707,0.0928 -0.603761,-1.10119 1.106808,-1.41003 1.873797,-1.53771 2.457768,-0.53227 4.996843,-0.56967 7.499373,-0.47802 1.66405,0.167 3.34974,0.27465 4.97799,0.67104 z" />
    <path
       id="path4103"
       d="m 103.81608,158.13034 c 1.32128,-0.0834 0.33449,-1.71373 1.49973,-1.91985 0.5637,-0.5179 1.58198,-0.85555 1.66831,-1.69491 0.40837,-1.22992 -1.05108,-1.3783 -1.89986,-1.46616 -1.22947,-0.13927 -2.50962,-0.24825 -3.60258,-0.87808 -0.7641,-0.41188 -1.680588,-0.12203 -2.333559,0.34204 -0.714553,0.31075 -1.193442,0.88733 -1.245526,1.68077 -0.961221,0.65189 0.645197,1.66505 1.331397,1.20918 0.711244,-0.43945 0.904638,0.61314 1.657278,0.52282 0.009,0.4177 -0.43935,1.25535 0.46883,1.26676 0.87015,0.0436 1.75132,0.43648 2.45598,0.93743 z"
       fill="#234323"
       style="stroke-width:0.266525" />
    <path
       id="path4043"
       fill="#236523"
       d="m 101.94903,151.93387 c 0.40908,-0.79674 1.2252,-1.39114 2.1976,-1.34711 0.90523,-0.81095 -1.01695,-0.69385 -1.50802,-0.46327 -0.55662,0.67283 -1.279,1.13988 -2.19524,0.8297 -1.039043,-0.0671 -1.628519,1.16434 -2.717185,0.99121 -1.136612,0.0703 -0.302839,1.12539 0.422026,1.00335 0.518798,0.36101 1.550242,1.06619 1.857329,0.049 -0.259336,-0.76118 0.39144,-1.31994 1.00974,-0.83605 0.31708,-0.0445 0.63273,-0.11716 0.93375,-0.22681 z"
       style="stroke-width:0.266525" />
    <path
       id="path4039"
       fill="#a05a2c"
       d="m 101.27327,163.12412 c 0.56808,-0.0783 2.11385,0.23934 2.03168,-0.47683 -0.51569,-0.77815 -0.15601,-1.78459 -0.25702,-2.6895 -0.15779,-0.77624 -0.21147,-1.38722 0.26603,-2.04039 0.22997,-0.84203 0.0928,-1.85884 0.91247,-2.42521 0.62695,-0.5992 1.80224,-0.84504 2.04589,0.26683 0.34809,0.41844 1.40544,-0.16239 0.48034,-0.14232 -0.048,-0.59173 -1.32731,-1.10412 -0.21739,-1.36181 1.00594,-0.52606 -0.85545,-0.19862 -1.02859,-0.13587 0.38543,-0.38125 0.0324,-1.17002 -0.27078,-0.41184 0.26953,0.75673 -0.98743,1.39557 -1.32583,0.95673 0.17118,-0.41324 0.30007,-1.76312 -0.30099,-0.86111 0.24648,0.98517 -1.03896,1.61402 -0.62697,2.65976 -0.15297,0.54138 -0.30601,0.92924 -0.17529,0.0975 0.0811,-0.96038 -1.26313,-1.52565 -0.48213,-2.52403 0.39722,-0.42292 -0.34386,-1.53881 -0.43765,-0.572 -0.14372,0.34877 -0.1717,1.26826 -0.43942,1.28261 -0.76766,-0.51116 -0.43285,-1.19394 0.0685,-1.72263 0.0914,-0.40819 -0.48906,-0.34851 -0.38518,-0.87644 -0.90826,-0.341 0.0883,0.55886 -0.27334,1.00568 -0.27885,0.3888 -0.10248,1.51026 -0.45834,0.53551 -0.34603,-0.64393 -0.468268,-1.49356 0.25134,-1.87918 0.17957,-1.0216 -0.46557,-0.1102 -0.721822,0.21936 -0.13518,-0.59067 -0.627311,-0.33155 -0.345588,0.18982 0.297733,0.54064 0.297793,1.25401 -0.393698,0.91284 -0.09264,0.76583 0.980108,0.35274 1.034148,1.16863 0.39881,0.37202 1.26555,1.16809 0.21467,0.68587 -0.904896,-0.0393 -1.841893,0.34221 -2.509617,-0.20553 0.107765,0.38576 0.339251,0.50909 -0.105554,0.83051 -0.335891,0.32633 -0.463914,1.44523 0.176563,0.76164 0.346741,-0.84251 1.387937,-0.79899 1.98575,-1.37193 0.690648,-0.13145 0.950348,1.04396 1.726828,0.44497 0.53913,0.33466 0.69004,1.08064 0.47503,1.71796 -0.21364,0.52121 -0.90511,0.59985 -0.50195,1.22286 -0.0271,0.94299 -0.37934,1.90565 -0.008,2.82264 0.15751,0.57491 0.29199,1.6806 -0.40469,1.91485 z"
       style="stroke-width:0.266525" />
    <path
       id="path236"
       fill-rule="evenodd"
       d="m 100.56457,151.28287 c -0.1531,0.44662 -0.998021,1.30986 -0.920472,0.29285 0.279873,0.82739 0.455872,-0.12543 0.920472,-0.29285 z"
       style="stroke-width:0.266525" />
    <path
       id="path238"
       fill-rule="evenodd"
       d="m 100.68998,151.65963 c -0.0691,0.49484 -0.957095,0.77991 -0.28455,0.22524 0.16344,0.003 0.10923,-0.32162 0.28455,-0.22524 z"
       style="stroke-width:0.266525" />
    <path
       id="path240"
       fill-rule="evenodd"
       d="m 99.392921,151.82683 c 0.44293,0.10671 -0.108991,0.69508 0,0 z"
       style="stroke-width:0.266525" />
    <path
       id="path242"
       fill-rule="evenodd"
       d="m 101.19221,152.74706 c -0.0366,-0.27456 -0.44705,-1.13663 0.0454,-0.54689 0.0458,0.18081 0.0201,0.37439 -0.0454,0.54689 z"
       style="stroke-width:0.266525" />
    <path
       id="path244"
       fill-rule="evenodd"
       d="m 98.2219,152.11943 c -0.06158,0.43866 -0.01587,0.42963 0.334649,0.20919 -0.04752,0.45348 0.614924,0.0215 0.315985,0.64685 0.214129,0.0404 0.530346,0.17648 0.897343,0.18984 -0.157703,-0.45923 -0.07834,-0.92468 0.09877,-0.19811 0.375273,0.79743 -1.187408,-0.0506 -0.503849,0.57014 0.504376,-0.21303 0.827662,0.62674 0.893722,0.76054 -0.364274,-0.3083 -0.856633,-1.02772 -1.32733,-0.38136 -0.119126,0.72692 -1.206897,-0.0972 -0.290919,0.1274 0.476317,-0.27009 0.406725,-0.78523 0.08188,-0.99534 0.243117,-0.67628 -0.591463,0.24488 -0.249399,-0.51071 -0.41318,0.34725 -0.478346,0.1486 -0.418376,-0.29285 -0.300219,0.35456 -1.070504,0.30169 -0.369562,0.0349 0.173142,-0.0701 0.339642,-0.19164 0.537078,-0.16056 z"
       style="stroke-width:0.266525" />
    <path
       id="path246"
       fill-rule="evenodd"
       d="m 100.48097,152.11943 c 0.83808,-0.12078 0.25458,1.70642 0.32557,0.52401 0.1117,-0.33554 -0.34533,-0.26749 -0.32557,-0.52401 z"
       style="stroke-width:0.266525" />
    <path
       id="path248"
       fill-rule="evenodd"
       d="m 100.06235,152.28726 c 0.36921,0.62451 0.0857,1.77996 1.04397,2.05207 0.4257,0.37959 0.1514,0.65957 -0.0816,0.0816 -0.92254,-0.18228 -0.90188,-1.40603 -0.96228,-2.13374 z"
       style="stroke-width:0.266525" />
    <path
       id="path250"
       fill-rule="evenodd"
       d="m 101.40121,152.70525 c 0.42204,0.11702 -0.48049,1.26024 -0.43015,1.13826 -0.0657,-0.45857 0.48582,-0.69187 0.43015,-1.13826 z"
       style="stroke-width:0.266525" />
    <path
       id="path252"
       fill-rule="evenodd"
       d="m 105.50136,153.37469 c -0.44723,0.4458 -0.10894,1.29083 -0.96246,1.41154 -0.35996,0.18715 -0.74118,0.20389 -0.92029,0.55487 0.22591,-0.38416 0.37969,-1.27529 0.50533,-1.38956 -0.044,0.44768 -0.2353,1.20112 0.43833,0.65971 0.87789,-0.11032 0.19958,-1.06353 0.93909,-1.23656 z"
       style="stroke-width:0.266525" />
    <path
       id="path254"
       fill-rule="evenodd"
       d="m 105.62676,153.54251 c 0.30104,-0.0162 -0.36263,0.90545 0.29196,0.48034 0.34024,0.1563 -0.90806,0.56385 -0.39125,-0.1674 l 0.0427,-0.10362 z"
       style="stroke-width:0.266525" />
    <path
       id="path256"
       fill-rule="evenodd"
       d="m 101.86163,153.58431 c 0.17193,0.30091 -0.4061,0.88087 -0.25104,1.33892 -0.22788,-0.44084 -0.0135,-0.96728 0.25104,-1.33892 z"
       style="stroke-width:0.266525" />
    <path
       id="path258"
       fill-rule="evenodd"
       fill="#ffffff"
       d="m 107.92827,153.66791 c 0.64617,0.20873 -0.0412,0.47391 0,0 z"
       style="stroke-width:0.266525" />
    <path
       id="path260"
       fill-rule="evenodd"
       d="m 106.88202,154.16951 c -0.30211,0.32493 -1.23592,0.3204 -0.4589,0.74133 0.20576,0.50059 0.48739,0.79046 1.04466,0.72299 -0.84633,0.56213 -1.01083,-0.60143 -1.54804,-1.04594 0.22145,-0.28555 0.61083,-0.41699 0.96228,-0.41838 z"
       style="stroke-width:0.266525" />
    <path
       id="path262"
       fill-rule="evenodd"
       d="m 100.73178,154.71354 c 0.69947,0.38626 0.19932,0.9677 0,0 z"
       style="stroke-width:0.266525" />
    <path
       id="path264"
       fill-rule="evenodd"
       d="m 98.179593,154.75534 c 0.512089,0.21044 0.03084,0.68568 0,0 z"
       style="stroke-width:0.266525" />
    <path
       id="path266"
       fill-rule="evenodd"
       d="m 98.305498,155.13217 c -0.118474,0.32357 -0.65762,0.79338 -0.920478,1.17153 0.229562,-0.60053 0.799278,-1.03106 0.460176,-1.50618 0.257021,0.10643 0.132115,0.48732 0.460302,0.33465 z"
       style="stroke-width:0.266525" />
    <path
       id="path268"
       fill-rule="evenodd"
       d="m 106.33799,155.7598 c -0.43212,-0.52558 -0.98444,-0.96538 -1.61648,-0.37141 -0.38962,0.3098 -0.97015,0.0772 -0.22071,-0.1005 0.8474,-0.55769 1.37439,-0.62442 1.83719,0.47191 z"
       style="stroke-width:0.266525" />
    <path
       id="path270"
       fill-rule="evenodd"
       d="m 99.016092,155.50837 c -0.386558,0.30126 -1.020248,0.37042 -1.10441,1.0398 -0.521941,0.35082 0.249699,-0.96691 0.670434,-0.99526 0.139931,-0.0435 0.288398,-0.0534 0.433976,-0.0446 z"
       style="stroke-width:0.266525" />
    <path
       id="path272"
       fill-rule="evenodd"
       d="m 104.20431,155.8016 c -0.0217,0.39018 0.53304,-0.17176 0.63394,0.19468 0.39292,-0.26469 0.62324,0.0681 1.14263,-0.0731 0.20708,0.27407 -0.63353,0.0577 -0.7954,0.26743 -0.10937,-0.52265 -0.75227,0.50053 -0.60466,-0.26344 -0.42001,0.47269 -0.57837,0.12177 -0.63967,0.25975 -0.2335,0.3627 -0.82214,1.37396 -0.49453,0.34696 0.20743,-0.20053 0.3798,-0.53697 0.75769,-0.73229 z"
       style="stroke-width:0.266525" />
    <path
       id="path3267"
       d="m 103.26572,156.87952 c -0.2682,0.80081 0.48151,1.83155 1.2622,1.01035 0.72622,-0.48259 0.99239,0.81897 0.16102,0.59076 -0.33068,0.86064 1.04105,0.7128 1.34229,1.30787 0.76378,-0.008 1.72309,-0.0352 1.98447,-0.89871 0.64502,0.0189 2.37788,0.2992 1.88575,-0.85392 -0.6237,0.008 -1.1663,-0.98314 -0.23478,-0.91727 1.02262,0.51359 1.69419,-0.6411 2.19171,-1.34208 -0.0312,-0.82536 -0.16607,-1.83312 -0.96191,-2.30687 -0.98166,-0.65775 -1.43433,0.72409 -2.29959,0.89117 -1.07781,0.34429 -1.01336,-1.25574 0.0857,-0.93207 1.04056,0.11239 1.51238,-1.71704 0.20797,-1.49275 -0.6396,-0.37936 0.4969,-1.10786 -0.25216,-1.5677 0.0695,-1.1316 -0.88311,-0.0598 -1.35206,-0.28463 -0.26978,-1.06657 -1.08462,-0.0882 -1.19018,0.50698 -0.77993,0.39046 -1.60372,-0.50289 -2.45409,-0.0445 -1.04986,-0.3653 -1.69207,0.78281 -2.08415,1.54784 0.003,0.9732 1.12636,1.55824 1.99055,1.46012 0.43188,-0.38181 1.42317,-0.52218 1.03381,0.35449 0.19357,0.69447 0.75375,1.31709 1.32436,1.72947 -0.40636,0.82049 -1.80403,-0.39119 -2.3192,0.48754 -0.1613,0.22324 -0.26477,0.48555 -0.32163,0.75394"
       fill="#008000"
       style="stroke-width:0.266525" />
    <path
       id="path274"
       fill-rule="evenodd"
       d="m 102.94905,156.34563 c 0.4046,0.0871 -0.46956,1.61228 -0.11195,0.54694 0.0567,-0.17721 0.11207,-0.35891 0.11195,-0.54694 z"
       style="stroke-width:0.266525" />
    <path
       id="path4045"
       fill="#236523"
       d="m 104.12514,158.1924 c 0.1125,-0.39928 0.52176,-0.55955 0.65084,-0.1879 0.38663,-0.51632 1.02372,0.14874 1.51132,-0.31849 0.80719,0.51973 1.50707,-0.25398 2.29243,-0.33973 0.47842,0.40334 0.79771,-0.58084 1.4112,-0.24541 0.33098,-0.31319 0.70107,0.42312 0.65384,-0.30552 0.52361,-0.0642 0.77952,-0.1577 0.9573,-0.69707 0.63271,-0.4948 -0.3048,-0.80444 -0.42953,-0.1101 -0.83764,0.29485 -1.60988,0.50632 -2.48359,0.52777 -0.39877,0.53171 -0.76503,0.43575 -1.2418,0.24835 -0.45217,0.59749 -1.26737,0.0872 -1.72044,0.735 -0.79144,0.1429 -1.67515,-0.50131 -2.35257,-0.34225 -0.14765,0.37063 0.26203,1.6627 0.54934,0.97049 l 0.20177,0.0649 z"
       style="stroke-width:0.266525" />
    <path
       id="path4065"
       fill="#236523"
       d="m 109.21646,157.69524 c 0.14528,0.42691 1.35254,-0.0143 0.73472,0.75819 -0.0821,0.47899 -0.22072,0.45893 -0.64162,0.3284 -0.16428,0.5479 -1.26744,-0.71754 -1.08659,0.24837 -0.50183,-0.0616 -0.38821,0.73447 -0.99345,0.34151 0.0789,0.54611 -0.64389,0.17776 -1.02085,0.34977 -0.41447,-0.62991 -1.40234,-0.17252 -1.40447,-1.08815 0.69248,-0.56723 1.41784,-0.33629 1.89756,0.33476 0.31864,-0.0577 0.58392,-0.23142 0.89308,-0.31584 0.1248,-0.86397 1.18494,-0.21121 1.7458,-0.27403 0.10683,-0.29721 -0.47201,-0.2979 -0.12418,-0.68298 z"
       style="stroke-width:0.266525" />
    <path
       id="path276"
       fill-rule="evenodd"
       d="m 109.30893,158.7301 c 0.47433,0.36392 0.53765,-0.53802 0.73326,-0.73053 -0.42973,0.28404 -0.47927,0.005 -0.63909,-0.14824 -0.39482,0.20917 -0.20436,-0.26445 -0.53097,-0.25415 0.14654,-0.92306 1.04377,-0.2291 1.37228,-0.66025 0.42175,0.48679 0.41743,-0.675 0.98907,-0.29884 0.15908,-0.60067 0.90927,-0.75996 0.55594,-1.28494 -0.11675,-0.32004 -0.22144,-0.86761 -0.22129,-1.3927 -0.32579,0.34323 -0.90315,0.25202 -0.45028,-0.2272 0.45091,-0.14567 -0.40872,0.63972 0.29743,0.0859 0.77619,-0.28345 0.13751,1.14443 0.65502,1.22909 -0.16474,0.40131 0.28411,0.93781 -0.37768,1.10756 -0.17405,0.49024 -0.2758,0.81808 -0.76117,0.70324 -0.3039,0.0915 -0.25391,0.6785 -0.70205,0.28114 -0.45832,0.52534 -1.01528,-0.30808 -0.96234,0.6277 0.57989,-0.29111 0.26027,0.47408 0.90297,0.0869 0.18774,0.19037 -0.3499,1.10489 -0.5197,1.1824 -0.44116,-0.64774 -0.72104,0.66813 -0.92717,-0.26525 -0.22306,0.41484 -0.59029,-0.29992 -0.5857,0.46037 -0.23887,0.56628 -0.93318,-0.0565 -0.92047,0.62757 -0.45087,-0.3121 -0.70066,0.0578 -0.46025,0.46017 -0.34433,-0.17093 -0.33206,-0.59892 -0.75309,-0.29285 0.004,-0.57998 -0.49835,-0.56759 -0.67484,-0.50698 -0.22865,-0.28664 -0.55298,0.0973 -0.51237,-0.49182 -0.50374,0.0875 -0.19374,-0.66943 0.0232,-0.59846 0.39482,0.31094 0.30223,-1.10866 -0.091,-0.28537 -0.33395,-0.75152 -0.47639,0.57024 -0.87163,0.10092 -0.22297,0.63145 -0.41238,-0.67035 -0.68013,0.14159 -0.45534,0.77689 -0.002,1.81683 -0.1666,2.71518 -0.16105,0.72541 0.27194,1.3055 0.5469,1.85364 -0.86058,-0.47154 -0.6999,-1.60931 -0.71841,-2.44034 0.1767,-0.80182 -0.38689,-1.7349 0.33222,-2.35656 0.0818,-0.38435 0.13262,-1.08708 0.31814,-0.27063 0.1743,0.52546 0.42763,0.13828 0.70655,0.15189 0.20803,-0.5276 0.60752,-0.0671 0.8925,-0.30691 0.66984,0.15581 -0.18987,0.96664 -0.31657,1.10038 0.25047,0.73674 1.20493,0.15499 1.33774,0.94254 0.4108,0.0961 0.65435,-0.30228 1.02134,-0.15015 -0.0916,-0.69189 0.838,0.12828 0.73583,-0.603 0.37494,0.0483 0.10455,-0.6758 0.64598,-0.31193 0.34489,-0.3575 0.39087,0.61998 0.77648,0.019 z"
       style="stroke-width:0.266525" />
    <path
       id="path4055"
       fill="#236523"
       d="m 105.86363,155.86366 c 0.83402,-0.17908 1.06501,-1.10583 1.97646,-1.00599 0.32593,-0.29743 1.83999,-0.13051 0.83919,-0.65764 -0.234,-0.24101 -1.47786,-0.096 -0.74194,-0.54978 0.28474,0.21422 0.4624,-0.49283 0.7514,-0.0529 0.18616,-0.4758 0.6055,0.15298 0.69659,-0.4669 0.55262,-0.01 0.65981,-1.5198 0.0476,-0.60513 -0.50056,-0.0264 -0.63493,0.78234 -1.29581,0.53713 -1.06042,-0.27242 -0.82407,1.18028 -0.0382,1.24893 0.0407,0.30731 -0.64327,0.15265 -0.67017,0.5654 -0.50851,-0.003 -1.16137,-0.0581 -1.23156,0.49534 -0.32209,-0.035 -0.3247,0.53094 -0.33352,0.49156 z"
       style="stroke-width:0.266525" />
    <path
       id="path4041"
       fill="#008000"
       d="m 99.458154,155.36777 c 0.771346,-0.75446 0.787956,0.70866 1.281676,0.62137 0.4244,-0.31583 1.06191,-0.45591 1.23747,-0.0819 0.15657,0.24109 -0.1291,0.58694 0.27394,0.58136 -0.0379,0.17132 -0.60643,1.18384 -0.089,0.56929 0.21749,-0.41648 -0.0186,0.71099 -0.49384,0.39582 -0.47078,0.42717 -1.30027,0.48843 -1.799439,0.87038 0.398529,0.14525 0.934729,0.94012 0.223879,0.91161 -0.422326,-0.31944 -0.437577,1.04253 -0.855315,0.21919 -0.40924,0.34248 -0.951234,0.26617 -1.472839,0.25054 -0.766207,-0.0875 -0.489684,-0.7489 -0.06775,-1.18874 -0.486741,-0.005 -0.484691,-0.34531 -0.874167,0.0899 -0.361895,-0.21363 -0.501088,0.51348 -0.78182,0.12314 -0.424032,0.26705 -0.839907,-0.19217 -0.645556,-0.49538 -0.632285,0.54209 -0.338833,-0.41173 -0.153498,-0.39371 -0.672106,-0.13794 -1.899652,-0.0576 -1.618905,-1.17415 0.198465,-0.25063 0.05456,-0.72585 0.67504,-0.55052 0.926611,0.34665 0.57414,-1.38184 1.380488,-0.64502 0.483841,0.59864 0.826165,-0.40863 1.212822,-0.63939 0.300641,-0.75615 -0.57482,-0.63408 -0.885171,-0.24464 -0.652804,0.0141 0.0053,-0.70482 -0.782065,-0.64232 0.06591,0.59205 -1.039269,1.07389 -1.087841,0.29032 -0.312691,-0.71356 -1.278978,0.84425 -1.463635,-0.20077 0.144099,-0.48912 -0.55668,-0.59244 -0.113125,-0.9047 -0.43414,-0.40534 0.677791,-0.70192 -0.164047,-0.9105 0.04151,-0.38491 -0.281159,-0.56746 0.184835,-0.74609 -0.158876,-0.96323 1.443793,-0.71573 1.499228,-1.5628 0.757166,-0.5623 1.450889,0.73895 2.283111,0.45873 0.356949,0.74175 1.03113,0.60004 1.549003,0.19441 0.941483,-0.38115 -0.229004,-1.07027 -0.732048,-0.93502 0.12914,-0.45511 -1.0078,-0.48453 -0.632323,-1.16099 0.272768,-0.40308 -0.730471,-1.13887 0.245342,-1.0962 0.346278,-0.3887 0.921062,-0.76311 1.245164,-0.48853 0.385846,-0.20845 0.945156,0.20659 0.99718,0.66897 0.28413,-0.48174 1.648342,-0.31359 1.134162,-1.07198 -0.48115,-0.51924 0.51421,-0.43281 0.5364,-0.89656 0.16747,-0.56499 0.82694,0.10061 1.1187,0.12244 0.35095,0.43878 0.87652,0.17234 1.31855,-0.0869 0.20629,0.51955 0.41045,0.90149 0.7359,1.31677 0.14402,0.89645 0.97957,-0.81639 1.30996,-0.018 0.67846,-0.24062 1.03206,0.4067 1.47226,0.62612 -0.45676,0.44836 0.50008,1.04124 -0.31702,1.20487 -0.24148,0.22185 -0.62751,0.62387 -1.05647,0.61229 0.56778,0.57095 -0.12009,0.49272 -0.26025,0.85809 -0.68576,-0.31005 -1.47257,0.43369 -2.27577,0.20329 -0.80286,0.14533 -0.86093,1.03139 -1.40741,1.42685 -0.39692,-3.7e-4 -1.367237,0.6157 -0.7175,-0.15605 0.52854,-0.61719 -0.478,-0.39721 -0.57258,0.0568 -0.22761,0.26677 -0.662615,-0.46317 -0.698778,0.3314 0.301632,0.24835 0.709548,1.5181 -0.10841,0.90274 -0.585553,0.0566 -0.486147,-0.84582 -1.058026,-0.44484 0.361242,-0.90713 -1.651689,0.2686 -0.426791,-0.13002 0.561522,-0.39428 4.75e-4,0.86426 0.682125,0.18298 0.01068,0.0198 -0.152608,0.5735 0.357964,0.16061 -0.143304,0.39005 0.603437,1.4327 -0.357365,1.26839 -0.478348,-0.0358 0.36892,1.05897 -0.510139,0.74103 -0.264158,0.16987 0.391472,0.56761 -0.185074,0.78601 -0.550474,0.46161 -0.175224,1.62324 0.358762,0.79816 0.139464,-0.92327 0.947543,-0.39133 1.349962,-0.97814 z"
       style="stroke-width:0.266525" />
    <path
       id="path4061"
       fill="#236523"
       d="m 96.953472,154.40448 c 0.881288,-0.74059 -0.988745,-0.26004 -0.964883,-0.96627 -0.482208,0.4205 -0.866834,-0.18381 -1.30877,-0.13511 -0.162156,0.6285 -1.007708,0.13022 -1.451812,0.29419 -0.30367,-0.3988 0.818647,-0.69671 0.01536,-1.06983 -0.497156,-0.25553 0.952826,-0.36326 -0.01377,-0.63135 -0.286125,-0.15781 -1.397683,-0.70787 -1.063625,-0.11501 0.48932,-0.20948 0.09146,0.42741 0.61333,0.59835 -0.687078,0.50781 -0.231847,1.10799 -0.0069,1.74008 0.2986,0.16546 0.550542,0.39811 0.869135,-0.11483 0.264367,-0.3379 0.09585,0.43666 0.418073,0.10191 0.05064,0.89421 1.164996,0.60258 1.217466,-0.1981 0.241637,-0.0178 0.216772,0.31166 0.450103,0.35795 -0.340333,0.5243 0.437599,0.28117 0.617182,0.12705 0.223394,0.0828 0.389662,-0.26019 0.609094,0.011 z"
       style="stroke-width:0.266525" />
    <path
       id="path4053"
       fill="#236523"
       d="m 106.39119,148.22669 c 0.62304,-0.0933 0.15899,0.57955 -0.17754,0.59859 0.10838,0.48003 -0.42316,0.0596 -0.55958,0.45966 -0.645,-0.076 -0.45397,0.0766 -0.11887,0.3614 0.13372,0.82791 -1.12611,0.0272 -1.41034,0.72249 -0.44357,-0.25823 -0.46343,0.61899 -0.667,0.0201 -0.59065,0.11258 -1.58342,0.26363 -2.14699,-0.22532 -0.50954,-0.0907 -1.512361,-0.15857 -1.773099,-0.33007 0.600819,-0.008 1.124529,-0.0696 1.706819,0.0385 0.39165,-0.0576 0.67094,0.40946 0.96831,0.17207 0.1311,0.56803 0.761,-0.4736 1.09826,0.0121 0.32364,-0.51453 0.68202,0.2898 1.08758,-0.22526 0.47823,-0.17965 0.7937,-0.0219 0.48505,-0.53759 0.0288,-0.71957 1.12547,-0.151 1.11395,-0.78491 0.20062,-0.13463 0.43048,-0.0127 0.39345,-0.28183 z"
       style="stroke-width:0.266525" />
    <path
       id="path4059"
       fill="#236523"
       d="m 101.82743,151.54881 c 0.52503,0.36506 -0.79636,0.10481 -0.17606,0.50694 0.39644,0.0923 0.0112,0.5551 0.3506,0.65685 -0.24269,0.39676 -0.0408,0.41652 0.26011,0.23325 -0.007,0.4041 0.19136,0.60419 0.49423,0.32656 -0.0671,0.77444 0.64659,-0.12562 0.78886,0.40756 0.41823,-0.23135 0.44507,-0.47087 0.68698,-0.17228 0.52548,0.0513 1.33701,0.18349 0.59848,-0.40514 -0.58448,-0.37689 -1.53714,-0.17974 -2.05726,-0.45075 0.29191,-0.60475 -0.81694,-0.002 -0.50027,-0.70367 0.039,-0.34214 -0.0581,-0.83974 -0.44567,-0.39932 z"
       style="stroke-width:0.266525" />
    <path
       id="path4049"
       fill="#236523"
       d="m 102.0757,156.11193 c 0.29054,0.53178 -0.0498,1.30176 -0.77616,1.55227 -0.12868,0.36033 -0.55423,-0.15745 -0.683,0.40359 -0.39013,0.073 -1.315567,0.25095 -0.45114,0.53936 0.89444,0.5843 -0.13615,0.49773 -0.411845,0.59236 0.230989,0.55159 -0.300712,0.60003 -0.509205,0.17445 -0.291343,0.3758 -1.217256,0.46128 -1.451166,0.21372 -0.378867,0.30969 -0.95923,-0.44081 -0.19121,-0.69857 0.362916,-0.36921 -0.377934,-0.58719 -0.416182,-0.65539 -0.01507,0.67058 -1.09469,0.41427 -1.435412,0.80154 0.05025,-0.81163 -0.730954,0.30435 -0.477143,-0.56013 0.04633,-0.34597 -0.74997,0.16448 -0.307032,-0.50044 -0.263863,-0.1559 -0.269493,-0.55249 -0.620914,-0.12419 -0.09946,-0.50464 -0.463313,0.0704 -0.650429,-0.44436 -0.364665,-0.3336 0.01319,-0.86506 0.09064,-1.14513 0.46045,0.0217 1.055833,-0.12519 1.374929,0.11372 -0.274172,0.4949 0.568506,0.36187 0.519833,0.94799 0.349505,0.44692 1.70981,0.608 1.302804,-0.14367 0.885797,-0.86527 0.921316,1.31965 1.928068,0.94406 0.357946,-0.44551 0.484132,-0.86906 1.146574,-0.86249 0.59947,-0.14455 1.85779,-0.079 1.7695,-0.88186 -0.0531,-0.13956 0.16803,-0.13508 0.24849,-0.26683 z"
       style="stroke-width:0.266525" />
    <path
       id="path4051"
       fill="#236523"
       d="m 100.30618,147.48158 c 0.58816,-0.0593 1.03618,0.29013 1.53611,0.41847 0.33331,-0.0356 1.07509,0.33357 0.3965,-0.17248 -0.54641,-0.33972 -1.53944,-0.73127 -1.90058,-0.26927 l -0.032,0.0233 z"
       style="stroke-width:0.266525" />
    <path
       id="path278"
       fill-rule="evenodd"
       d="m 101.0668,145.17449 c 0.47782,0.093 1.02166,0.869 1.50996,0.55477 0.13923,-0.5492 1.11905,-0.24415 0.70758,0.28211 0.32932,-0.27346 0.5022,0.68097 0.47792,0.49282 -0.0156,0.77025 0.78512,0.55891 1.03821,0.0325 0.59557,-0.36181 0.51623,0.78825 0.83472,0.0953 0.33109,-0.24625 0.36167,0.41098 0.72533,0.47123 -0.20303,0.50728 0.60265,-0.32522 0.42815,0.41083 -0.34271,0.4368 0.40685,1.3596 -0.46167,1.41463 -0.10418,0.56791 -1.26199,0.28307 -0.69098,1.00425 -0.0581,0.70016 -1.43438,0.0392 -0.64209,0.52584 0.84107,0.91685 1.22996,-0.71623 1.43298,-0.87895 0.4647,0.41401 1.1532,-0.36148 1.00255,0.53745 0.43309,-0.18482 0.70286,-0.70516 1.1626,-0.35881 0.39657,-0.32111 -0.32318,1.0206 0.34041,0.64604 0.38442,0.34821 -0.46851,1.7006 0.36249,1.38755 0.41034,-0.46369 0.55499,0.0947 0.46749,0.25154 0.49463,0.55732 -0.40392,1.63131 -0.94818,1.55 0.12745,0.28272 -0.66454,-0.31167 -0.44983,0.27392 0.62772,0.80124 1.42378,-0.97838 1.78424,-0.40844 0.46401,-0.27993 0.0951,0.37394 0.56077,0.0847 0.7925,0.16434 -0.51685,0.30953 -0.77482,0.11243 -0.58546,-0.10193 -0.55672,0.93416 -1.08264,0.58515 -0.20307,-0.0134 -1.40234,-0.13082 -1.00725,-0.74078 0.28539,0.34947 0.65218,-0.48762 0.83668,0.0836 0.58377,-0.19071 1.61065,-1.16897 0.61026,-1.66265 -0.91265,0.48612 -0.41532,-0.91424 -0.52738,-1.1637 -0.46417,-0.22048 -0.2129,-1.29874 -0.94308,-0.68198 -0.42062,0.53122 -0.58978,-0.073 -0.7045,-0.22333 -0.44546,0.29978 -0.69098,-0.0782 -0.84811,0.55511 -0.50296,0.91975 -1.29677,0.13535 -1.9248,0.0895 -0.51689,0.0641 -0.67474,0.43978 -1.01749,0.0457 -0.245,0.0381 -1.1393,0.0813 -1.08582,0.70464 -0.52424,0.21502 -0.13265,0.64996 -0.78202,0.68466 0.47787,0.22539 0.34998,1.33068 0.80792,0.96087 0.13323,0.38216 0.19027,0.61946 0.49347,0.218 0.18102,0.29812 0.30652,0.58434 0.61071,0.22511 0.24166,0.74217 0.59777,-0.37823 1.07194,0.12648 0.38832,-0.13957 -0.68878,0.65192 -0.44702,-0.004 -0.53168,0.40569 -0.39666,1.89318 -0.85136,1.85956 0.42595,-0.53725 0.58091,-1.95458 -0.29218,-1.65737 -0.5519,-0.78909 -0.65401,1.05299 -0.67139,1.46958 0.009,0.88378 -0.30378,-0.64527 -0.0179,-0.93609 0.22422,-0.47201 0.14953,-1.19951 -0.35494,-1.00737 0.1187,-0.67654 -1.03614,-1.16473 -0.0309,-1.72678 0.33917,-0.743 0.91781,-1.2887 1.7796,-1.0764 0.62762,-0.0479 1.28386,-0.39912 1.86295,-0.44317 -0.30723,-0.41884 -0.4143,-0.80792 0.29201,-0.78208 0.31887,-0.23499 1.32457,-0.58781 0.61907,-0.99041 0.40715,-0.43543 0.0483,-0.76572 -0.15948,-0.86418 -0.36318,-0.5329 -0.91008,-0.0546 -1.32365,-0.54527 -0.10571,0.31022 -1.0191,1.00622 -0.93508,0.29887 -0.52099,0.20011 -0.16238,-0.83548 -0.54989,-0.6926 -0.23301,-0.40705 -0.12176,-1.04903 -0.72844,-0.44215 -0.72274,0.39495 -1.061,-0.53242 -1.81912,-0.46984 -0.0847,0.42294 -0.995523,0.89945 -0.29588,1.12262 -0.47547,0.52718 -0.21416,0.99234 0.39655,0.91765 -0.38898,0.76873 -1.224056,-0.98755 -1.757606,0.0122 -0.545738,0.35073 -0.199444,-0.65893 -0.85158,-0.55166 -0.659571,-0.37768 -1.429601,0.34016 -1.859438,0.68889 0.113684,0.58507 0.103849,1.58448 0.730858,1.58656 -0.04979,0.68259 0.674303,0.28088 1.065478,0.48792 0.672285,-0.22696 0.05438,1.29196 -0.571769,0.9246 -0.311138,0.64414 -1.167193,0.40844 -1.289808,-0.22771 -0.720612,0.18687 -1.082176,-0.38404 -1.732398,-0.46822 -0.513043,-0.22059 -1.029038,0.86942 -1.553979,0.82786 -0.619675,0.006 -0.151952,1.0963 -0.897887,0.80231 0.499787,0.1325 -0.02279,0.74519 0.504411,0.4942 0.240573,0.63903 -0.637995,1.11194 0.0175,1.68037 0.13719,0.90211 0.741232,0.41891 1.134285,0.0788 0.227159,0.11922 0.425506,0.32999 0.454023,0.75413 0.340679,-0.14171 0.371168,0.0703 0.655933,-0.21312 0.09435,0.29218 0.371268,-1.22594 0.698989,-0.36281 0.307053,0.21547 -0.259939,0.61275 0.379693,0.45589 0.355466,-0.53801 1.537956,-0.22941 0.806211,0.38572 -0.275951,0.67892 -0.863594,1.42073 -1.439247,0.47784 -0.453369,0.15427 -0.555627,1.19071 -1.241051,0.82362 -0.772102,0.0746 -0.688759,1.69012 0.156132,1.38749 -0.137516,0.47878 0.81144,-0.33815 0.547483,0.39884 -0.205417,0.81587 0.765372,-0.12334 0.455919,0.66289 -0.04552,0.38341 0.403009,-0.4062 0.290851,0.21285 0.281271,0.13088 0.52487,-0.19782 0.730045,-0.0488 0.210837,-0.41901 0.921627,-0.0157 0.824245,-0.7377 0.277878,0.0204 0.315947,0.55122 0.612202,0.50234 -0.274855,0.34757 -0.826793,1.14505 -0.06685,1.05582 0.277136,-0.10397 0.04394,0.24366 0.422496,-0.0202 0.267506,0.0584 1.03901,0.27579 1.001998,-0.28994 0.259205,0.45629 0.703529,0.40926 0.637736,-0.16576 0.670835,0.34752 0.922765,-0.36325 0.198706,-0.6024 -0.730033,-0.32197 0.553829,-0.4773 0.614689,-0.60712 -6e-5,0.30638 0.44583,-0.32694 0.67284,-0.22435 0.72959,-0.16392 1.21392,-0.94108 0.72208,-1.52099 0.37549,-0.55165 -0.573,0.13739 -0.18637,-0.39502 -0.16446,-0.34186 -0.80337,0.2448 -0.94868,0.31586 -0.67833,0.71007 -0.24092,-1.12545 -0.8253,-0.74782 -0.06262,-0.55335 -1.014973,0.50626 -0.338105,-0.21849 0.725925,-0.58772 0.862805,0.46475 1.037645,0.83654 0.49052,-0.53139 1.51344,-0.69016 1.59572,0.31606 0.32677,0.68214 -0.30517,1.35482 -0.71743,1.56576 0.35575,1.1529 -0.24275,2.38978 0.24218,3.52589 0.34787,0.56891 -0.42612,1.98348 -0.56468,1.63343 0.83028,-0.92884 0.15182,-2.15543 0.14417,-3.20288 0.3892,-0.77035 0.20674,-2.36674 -0.94851,-1.55632 -0.49145,0.15272 -0.529183,-9.6e-4 -0.0999,0.30412 0.47551,0.45553 0.0503,0.99478 -0.467442,0.88716 -0.201786,0.51408 -0.603091,0.41943 -0.80358,0.26828 -0.576654,0.22868 -1.792701,0.46152 -1.980289,-0.30364 -0.01133,-0.45305 0.935234,-1.06448 6.42e-4,-0.76735 -0.601735,0.38264 -1.863205,0.72252 -1.990874,0.0939 0.419628,-0.51459 -0.785062,0.126 -0.423648,-0.53701 0.05366,-0.42275 -0.759195,-0.1252 -0.687887,-0.36946 -0.728359,0.0274 -0.822209,-1.41561 -0.284766,-1.82679 0.580817,0.13762 1.371885,-0.2362 1.336855,-0.80591 0.585348,-0.0314 1.29743,0.71767 1.572114,-0.17659 0.362725,-0.74928 -0.419285,-0.55616 -0.73521,-0.21511 -0.570155,0.0447 -0.503561,-1.26625 -0.726717,-0.21758 -0.44228,0.59499 -1.166073,0.16495 -1.52431,-0.3292 -0.527565,0.51628 -1.290353,0.28956 -1.173849,-0.56341 -0.684508,0.22274 -0.372221,-0.77802 -0.157044,-0.80392 0.589869,-0.75223 -1.014746,-0.88109 -0.171496,-1.46945 0.549788,-0.002 -0.04901,-0.68375 0.602926,-0.72318 0.347636,-0.29313 1.301468,-0.2867 1.158952,-1.00918 0.895913,-0.35348 1.626297,0.66387 2.463623,0.474 0.378289,0.24075 0.89151,1.15038 1.165666,0.26845 0.703608,0.19014 0.816415,-0.54654 0.0561,-0.51479 -1.126977,-0.0661 -1.407667,-1.38625 -1.431085,-2.33389 0.30234,-0.49474 0.791771,-0.25872 1.016581,-0.82768 0.558828,-0.1951 1.064013,-0.20851 1.460088,0.10534 0.449728,-0.41354 0.245599,0.9984 0.644959,0.31056 0.427296,-0.14393 1.305771,-0.3213 0.569727,-0.81284 0.246544,-0.26472 0.645994,-0.67131 0.495964,-0.80271 0.46782,0.11788 0.25111,-0.54724 0.70149,-0.35439 z m 7.19587,8.74435 c -0.2908,-0.56005 -0.55772,0.13016 0,0 z"
       style="stroke-width:0.266525" />
    <text
       xml:space="preserve"
       style="font-style:normal;font-variant:normal;font-weight:normal;font-stretch:normal;font-size:5.37882px;line-height:normal;font-family:'SF Pro Display';-inkscape-font-specification:'SF Pro Display';text-decoration-color:#000000;stroke-width:1.13897;stroke-miterlimit:2"
       x="97.58989"
       y="129.45848"
       id="text1"><tspan
         sodipodi:role="line"
         id="tspan1"
         x="97.58989"
         y="129.45848"
         style="font-style:normal;font-variant:normal;font-weight:normal;font-stretch:normal;font-family:'SF Pro Display';-inkscape-font-specification:'SF Pro Display';stroke-width:1.13897">CO<tspan
   style="font-style:normal;font-variant:normal;font-weight:normal;font-stretch:normal;font-size:3.49624px;font-family:'SF Pro Display';-inkscape-font-specification:'SF Pro Display';baseline-shift:sub;stroke-width:1.13897"
   id="tspan2">2</tspan></tspan></text>
    <path
       style="color:#000000;solid-color:#000000;stroke-width:0.374177;stroke-miterlimit:2"
       d="m 99.503598,130.95514 v 12.23856 h 0.811432 v -12.23856 z"
       id="path2771" />
    <path
       style="fill-rule:evenodd;stroke-width:0.853769"
       d="m 99.909308,143.19369 -1.014382,-1.01438 1.014382,3.55033 1.014382,-3.55033 z"
       id="path2767" />
    <text
       xml:space="preserve"
       style="font-style:normal;font-variant:normal;font-weight:normal;font-stretch:normal;font-size:3.4048px;line-height:normal;font-family:'SF Pro Display';-inkscape-font-specification:'SF Pro Display';text-decoration-color:#000000;stroke-width:7.41539;stroke-miterlimit:2;-inkscape-stroke:none"
       x="100.64603"
       y="135.9254"
       id="text3"><tspan
         sodipodi:role="line"
         id="tspan3"
         x="100.64603"
         y="135.9254"
         style="font-style:normal;font-variant:normal;font-weight:normal;font-stretch:normal;font-size:3.4048px;font-family:'SF Pro Display';-inkscape-font-specification:'SF Pro Display';stroke-width:7.41539">Carbon</tspan><tspan
         sodipodi:role="line"
         x="100.64603"
         y="140.1814"
         id="tspan4"
         style="font-style:normal;font-variant:normal;font-weight:normal;font-stretch:normal;font-size:3.4048px;font-family:'SF Pro Display';-inkscape-font-specification:'SF Pro Display';stroke-width:7.41539">fixation</tspan></text>
    <text
       xml:space="preserve"
       style="font-style:normal;font-variant:normal;font-weight:normal;font-stretch:normal;font-size:3.4048px;line-height:normal;font-family:'SF Pro Display';-inkscape-font-specification:'SF Pro Display';text-decoration-color:#000000;stroke-width:7.41539;stroke-miterlimit:2"
       x="119.54501"
       y="144.1963"
       id="text3-2"><tspan
         sodipodi:role="line"
         x="119.54501"
         y="144.1963"
         id="tspan4-1"
         style="font-style:normal;font-variant:normal;font-weight:normal;font-stretch:normal;font-size:3.4048px;font-family:'SF Pro Display';-inkscape-font-specification:'SF Pro Display';stroke-width:7.41539">Respiration</tspan><tspan
         sodipodi:role="line"
         x="119.54501"
         y="148.4523"
         id="tspan7"
         style="font-style:normal;font-variant:normal;font-weight:normal;font-stretch:normal;font-size:3.4048px;font-family:'SF Pro Display';-inkscape-font-specification:'SF Pro Display';stroke-width:7.41539">by microbes</tspan></text>
    <text
       xml:space="preserve"
       style="font-style:normal;font-variant:normal;font-weight:normal;font-stretch:normal;font-size:3.4048px;line-height:normal;font-family:'SF Pro Display';-inkscape-font-specification:'SF Pro Display';text-decoration-color:#000000;fill:#9798a5;stroke-width:7.41539;stroke-miterlimit:2;-inkscape-stroke:none"
       x="90.880211"
       y="137.39534"
       id="text3-6"><tspan
         sodipodi:role="line"
         x="90.880211"
         y="137.39534"
         style="font-style:normal;font-variant:normal;font-weight:normal;font-stretch:normal;font-size:3.4048px;line-height:normal;font-family:'SF Pro Display';-inkscape-font-specification:'SF Pro Display';text-decoration-color:#000000;text-anchor:end;stroke-width:7.41539;-inkscape-stroke:none"
         id="tspan4-9">Respiration</tspan><tspan
         sodipodi:role="line"
         x="90.880211"
         y="141.65134"
         style="font-style:normal;font-variant:normal;font-weight:normal;font-stretch:normal;font-size:3.4048px;line-height:normal;font-family:'SF Pro Display';-inkscape-font-specification:'SF Pro Display';text-decoration-color:#000000;text-anchor:end;stroke-width:7.41539;-inkscape-stroke:none"
         id="tspan5">by plants</tspan></text>
    <text
       xml:space="preserve"
       style="font-style:normal;font-variant:normal;font-weight:normal;font-stretch:normal;font-size:3.4048px;line-height:normal;font-family:'SF Pro Display';-inkscape-font-specification:'SF Pro Display';text-decoration-color:#000000;fill:#9798a5;stroke-width:7.41539;stroke-miterlimit:2;-inkscape-stroke:none"
       x="127.70871"
       y="153.70096"
       id="text3-6-8"><tspan
         sodipodi:role="line"
         x="127.70871"
         y="153.70096"
         style="font-style:normal;font-variant:normal;font-weight:normal;font-stretch:normal;font-size:3.4048px;line-height:normal;font-family:'SF Pro Display';-inkscape-font-specification:'SF Pro Display';text-decoration-color:#000000;text-anchor:middle;stroke-width:7.41539;-inkscape-stroke:none"
         id="tspan5-9">~10x human</tspan><tspan
         sodipodi:role="line"
         x="127.70871"
         y="157.95695"
         style="font-style:normal;font-variant:normal;font-weight:normal;font-stretch:normal;font-size:3.4048px;line-height:normal;font-family:'SF Pro Display';-inkscape-font-specification:'SF Pro Display';text-decoration-color:#000000;text-anchor:middle;stroke-width:7.41539;-inkscape-stroke:none"
         id="tspan4389"> emissions</tspan></text>
    <path
       style="color:#000000;solid-color:#000000;fill:#9798a5;stroke-width:0.264583;stroke-miterlimit:2;-inkscape-stroke:none"
       d="m 95.250128,131.01482 c 0,0 -3.541797,3.62126 -3.541798,8.20067 0,4.52328 1.639447,9.07092 1.639447,9.07092 l 0.381771,-0.13728 c 0,0 -1.615501,-4.50876 -1.615501,-8.93364 0,-4.36875 3.427107,-7.91787 3.427107,-7.91787 z"
       id="path2761" />
    <path
       style="fill:#9798a5;fill-rule:evenodd;stroke-width:0.853769"
       d="m 95.395633,131.15625 0.02045,1.43441 1.747,-3.25298 -3.201855,1.83903 z"
       id="path2757" />
    <path
       style="color:#000000;solid-color:#000000;stroke-width:0.264583;stroke-miterlimit:2;-inkscape-stroke:none"
       d="m 111.99162,130.50994 c 0,0 6.41795,5.5842 6.82142,14.83728 0.40391,9.26285 -5.91666,20.40019 -5.91666,20.40019 l -0.35329,-0.19967 c 0,0 6.25982,-11.11943 5.8646,-20.18284 -0.39564,-9.07318 -6.68254,-14.54895 -6.68254,-14.54895 z"
       id="path2781" />
    <path
       style="fill-rule:evenodd;stroke-width:0.853769"
       d="m 111.85838,130.66292 0.0991,1.43113 -2.0118,-3.0962 3.34386,1.56601 z"
       id="path2777" />
    <circle
       style="stroke:#000000;stroke-width:0.673965;stroke-miterlimit:2;-inkscape-stroke:none"
       id="path3029"
       cx="81.594269"
       cy="158.12753"
       r="7.7245188" />
    <path
       style="fill:#32cd32;stroke-width:0.673965;stroke-miterlimit:2;-inkscape-stroke:none"
       id="path3029-6"
       sodipodi:type="arc"
       sodipodi:cx="81.594269"
       sodipodi:cy="-158.12753"
       sodipodi:rx="7.7245188"
       sodipodi:ry="7.7245188"
       sodipodi:start="0"
       sodipodi:end="3.1415927"
       sodipodi:arc-type="slice"
       d="m 89.318788,-158.12753 a 7.7245188,7.7245188 0 0 1 -3.86226,6.68963 7.7245188,7.7245188 0 0 1 -7.724519,0 7.7245188,7.7245188 0 0 1 -3.862259,-6.68963 h 7.724519 z"
       transform="scale(1,-1)" />
    <text
       xml:space="preserve"
       style="font-style:normal;font-variant:normal;font-weight:normal;font-stretch:normal;font-size:2.65641px;line-height:1;font-family:'SF Pro Display';-inkscape-font-specification:'SF Pro Display';text-decoration-color:#000000;fill:#ffffff;stroke-width:0.264584;-inkscape-stroke:none"
       x="81.579803"
       y="161.42914"
       id="text3161"><tspan
         sodipodi:role="line"
         x="81.579803"
         y="161.42914"
         id="tspan4183"
         style="font-style:normal;font-variant:normal;font-weight:normal;font-stretch:normal;font-family:'SF Pro Display';-inkscape-font-specification:'SF Pro Display';text-anchor:middle;stroke-width:0.264584">Simple</tspan><tspan
         sodipodi:role="line"
         x="81.579803"
         y="164.08554"
         style="font-style:normal;font-variant:normal;font-weight:normal;font-stretch:normal;font-family:'SF Pro Display';-inkscape-font-specification:'SF Pro Display';text-anchor:middle;stroke-width:0.264584"
         id="tspan4189">sugars</tspan></text>
    <text
       xml:space="preserve"
       style="font-style:normal;font-variant:normal;font-weight:bold;font-stretch:normal;font-size:2.65641px;line-height:1;font-family:'SF Pro Display';-inkscape-font-specification:'SF Pro Display, Bold';font-variant-ligatures:normal;font-variant-caps:normal;font-variant-numeric:normal;font-variant-east-asian:normal;text-decoration-color:#000000;stroke-width:0.264584;-inkscape-stroke:none"
       x="81.594269"
       y="153.63173"
       id="text3161-2"><tspan
         sodipodi:role="line"
         id="tspan3159-9"
         x="81.594269"
         y="153.63173"
         style="font-style:normal;font-variant:normal;font-weight:bold;font-stretch:normal;font-size:2.65641px;font-family:'SF Pro Display';-inkscape-font-specification:'SF Pro Display, Bold';font-variant-ligatures:normal;font-variant-caps:normal;font-variant-numeric:normal;font-variant-east-asian:normal;text-anchor:middle;stroke-width:0.264584">Litter</tspan><tspan
         sodipodi:role="line"
         x="81.594269"
         y="156.28813"
         style="font-style:normal;font-variant:normal;font-weight:bold;font-stretch:normal;font-size:2.65641px;font-family:'SF Pro Display';-inkscape-font-specification:'SF Pro Display, Bold';font-variant-ligatures:normal;font-variant-caps:normal;font-variant-numeric:normal;font-variant-east-asian:normal;text-anchor:middle;stroke-width:0.264584"
         id="tspan4185">(~50%)</tspan></text>
  </g>
</svg>
