<?xml version="1.0" encoding="UTF-8" standalone="no"?>
<!-- Created with Inkscape (http://www.inkscape.org/) -->

<svg width="49.449326mm" height="44.615269mm" viewBox="0 0 49.449326 44.615269" version="1.1" id="svg1" inkscape:version="1.4-dev (1a81a71, 2024-01-09)" sodipodi:docname="vario.svg" xmlns:inkscape="http://www.inkscape.org/namespaces/inkscape" xmlns:sodipodi="http://sodipodi.sourceforge.net/DTD/sodipodi-0.dtd" xmlns="http://www.w3.org/2000/svg" xmlns:svg="http://www.w3.org/2000/svg">
  <sodipodi:namedview id="namedview1" pagecolor="#ffffff" bordercolor="#000000" borderopacity="0.25" inkscape:showpageshadow="2" inkscape:pageopacity="0.0" inkscape:pagecheckerboard="0" inkscape:deskcolor="#d1d1d1" inkscape:document-units="mm" inkscape:zoom="2.5586693" inkscape:cx="-16.414783" inkscape:cy="77.57939" inkscape:window-width="2616" inkscape:window-height="1212" inkscape:window-x="0" inkscape:window-y="25" inkscape:window-maximized="0" inkscape:current-layer="layer1" />
  <defs id="defs1">
    <marker style="overflow:visible" id="marker17" refX="0" refY="0" orient="auto-start-reverse" inkscape:stockid="Dart arrow" markerWidth="8.75" markerHeight="5" viewBox="0 0 8.75 5" inkscape:isstock="true" inkscape:collect="always" preserveAspectRatio="xMidYMid">
      <path style="fill:context-stroke;fill-rule:evenodd;stroke:none" d="M 0,0 5,-5 -12.5,0 5,5 Z" transform="scale(-0.5)" id="path17" />
    </marker>
    <marker style="overflow:visible" id="DartArrow" refX="0" refY="0" orient="auto-start-reverse" inkscape:stockid="Dart arrow" markerWidth="8.75" markerHeight="5" viewBox="0 0 8.75 5" inkscape:isstock="true" inkscape:collect="always" preserveAspectRatio="xMidYMid">
      <path style="fill:context-stroke;fill-rule:evenodd;stroke:none" d="M 0,0 5,-5 -12.5,0 5,5 Z" transform="scale(-0.5)" id="path6" />
    </marker>
  </defs>
  <g inkscape:label="Layer 1" inkscape:groupmode="layer" id="layer1" transform="translate(-74.076843,-122.10157)">
    <path id="path7" d="m 89.155296,161.70927 1.241413,-1.02961 c 0.188071,-0.15598 0.477087,-0.11454 0.64813,0.0909 0.170423,0.20549 0.155833,0.49701 -0.03222,0.65299 l -1.239823,1.02944 c -0.188073,0.15598 -0.477546,0.11608 -0.648192,-0.0904 -0.170422,-0.20548 -0.157362,-0.49745 0.03071,-0.65343 z" style="fill:#00bfff;fill-opacity:1;fill-rule:nonzero;stroke:black;stroke-width:0.0960359;stroke-linecap:butt;stroke-linejoin:miter;stroke-miterlimit:4;stroke-dasharray:none;stroke-opacity:1" />
    <path id="path8" d="m 91.302042,161.88933 1.241409,-1.0296 c 0.187733,-0.1557 0.475955,-0.11592 0.646379,0.0896 0.171894,0.20656 0.157361,0.49745 -0.03038,0.65315 l -1.24141,1.02961 c -0.188071,0.15598 -0.475955,0.11591 -0.646717,-0.0893 -0.170588,-0.20707 -0.157362,-0.49746 0.03067,-0.65344 z" style="fill:#7b68ee;fill-opacity:1;fill-rule:nonzero;stroke:black;stroke-width:0.0960359;stroke-linecap:butt;stroke-linejoin:miter;stroke-miterlimit:4;stroke-dasharray:none;stroke-opacity:1" />
    <path id="path8-0" d="m 92.855049,162.77891 1.24141,-1.0296 c 0.187733,-0.1557 0.475955,-0.11592 0.646379,0.0896 0.171894,0.20656 0.157361,0.49745 -0.03038,0.65315 l -1.24141,1.02961 c -0.188072,0.15598 -0.475955,0.11591 -0.646717,-0.0893 -0.170588,-0.20707 -0.157362,-0.49746 0.03067,-0.65344 z" style="fill:#7b68ee;fill-opacity:1;fill-rule:nonzero;stroke:black;stroke-width:0.0960359;stroke-linecap:butt;stroke-linejoin:miter;stroke-miterlimit:4;stroke-dasharray:none;stroke-opacity:1" />
    <path id="path8-0-3" d="m 91.992405,165.10804 1.241409,-1.0296 c 0.187733,-0.1557 0.475956,-0.11591 0.646379,0.0896 0.171894,0.20656 0.157362,0.49745 -0.03038,0.65315 l -1.241409,1.0296 c -0.188072,0.15599 -0.475956,0.11591 -0.646718,-0.0893 -0.170588,-0.20708 -0.157361,-0.49747 0.03067,-0.65345 z" style="fill:#7b68ee;fill-opacity:1;fill-rule:nonzero;stroke:black;stroke-width:0.0960359;stroke-linecap:butt;stroke-linejoin:miter;stroke-miterlimit:4;stroke-dasharray:none;stroke-opacity:1" />
    <path id="path9" d="m 88.896814,163.83579 1.241067,-1.02932 c 0.188071,-0.15599 0.475955,-0.11592 0.646891,0.0909 0.170762,0.2052 0.157072,0.49711 -0.03096,0.65309 l -1.240952,1.02808 c -0.188072,0.15599 -0.475955,0.1159 -0.647967,-0.0894 -0.170929,-0.20679 -0.156112,-0.49734 0.03196,-0.65332 z" style="fill:#a0522d;fill-opacity:1;fill-rule:nonzero;stroke:black;stroke-width:0.0960359;stroke-linecap:butt;stroke-linejoin:miter;stroke-miterlimit:4;stroke-dasharray:none;stroke-opacity:1" />
    <path id="path12" d="m 92.496554,163.69322 c 0,-0.27614 -0.223919,-0.49868 -0.498683,-0.49868 -0.275798,0 -0.498682,0.22254 -0.498682,0.49868 0,0.27477 0.222884,0.49731 0.498682,0.49731 0.274764,0 0.498683,-0.22254 0.498683,-0.49731 z" style="fill:maroon;fill-opacity:1;fill-rule:nonzero;stroke:black;stroke-width:0.138878;stroke-linecap:butt;stroke-linejoin:miter;stroke-miterlimit:4;stroke-dasharray:none;stroke-opacity:1" />
    <path id="path13" d="m 101.23476,162.14048 1.23982,-1.02943 c 0.18807,-0.15598 0.47709,-0.11454 0.64814,0.091 0.17076,0.20519 0.15707,0.49711 -0.031,0.65309 l -1.24107,1.02933 c -0.18807,0.15597 -0.47754,0.11607 -0.64785,-0.0907 -0.17076,-0.2052 -0.15611,-0.49734 0.0319,-0.65333 z" style="fill:#e9967a;fill-opacity:1;fill-rule:nonzero;stroke:black;stroke-width:0.0960359;stroke-linecap:butt;stroke-linejoin:miter;stroke-miterlimit:4;stroke-dasharray:none;stroke-opacity:1" />
    <path id="path14" d="m 103.37991,162.32072 1.24142,-1.02961 c 0.18807,-0.15598 0.47721,-0.11578 0.64797,0.0894 0.17064,0.20644 0.15611,0.49734 -0.0319,0.65332 l -1.2401,1.0291 c -0.1878,0.15633 -0.47728,0.11642 -0.64769,-0.0891 -0.17094,-0.20679 -0.15771,-0.49718 0.0304,-0.65316 z" style="fill:#f5f5f5;fill-opacity:1;fill-rule:nonzero;stroke:black;stroke-width:0.0960359;stroke-linecap:butt;stroke-linejoin:miter;stroke-miterlimit:4;stroke-dasharray:none;stroke-opacity:1" />
    <path id="path15" d="m 100.97469,164.26718 1.24107,-1.02933 c 0.18807,-0.15598 0.47754,-0.11607 0.64819,0.0904 0.1707,0.20583 0.15578,0.49763 -0.0319,0.65333 l -1.24004,1.02847 c -0.18808,0.15599 -0.47721,0.1158 -0.64797,-0.0894 -0.17094,-0.20679 -0.15736,-0.49746 0.0307,-0.65344 z" style="fill:#90ee90;fill-opacity:1;fill-rule:nonzero;stroke:black;stroke-width:0.0960359;stroke-linecap:butt;stroke-linejoin:miter;stroke-miterlimit:4;stroke-dasharray:none;stroke-opacity:1" />
    <path id="path15-4" d="m 98.776795,163.81395 1.241075,-1.02932 c 0.18807,-0.15599 0.47754,-0.11608 0.64818,0.0904 0.17071,0.20582 0.15578,0.49762 -0.0319,0.65332 l -1.240041,1.02847 c -0.188071,0.15599 -0.477203,0.1158 -0.647965,-0.0894 -0.170936,-0.20679 -0.157362,-0.49746 0.03067,-0.65344 z" style="fill:#90ee90;fill-opacity:1;fill-rule:nonzero;stroke:black;stroke-width:0.0960359;stroke-linecap:butt;stroke-linejoin:miter;stroke-miterlimit:4;stroke-dasharray:none;stroke-opacity:1" />
    <path id="path15-3" d="m 98.604272,162.00241 1.241071,-1.02933 c 0.188067,-0.15599 0.477537,-0.11607 0.648187,0.0904 0.1707,0.20583 0.15578,0.49763 -0.0319,0.65333 l -1.240044,1.02847 c -0.188071,0.15599 -0.477203,0.11579 -0.647965,-0.0894 -0.170936,-0.2068 -0.157362,-0.49747 0.03067,-0.65344 z" style="fill:#90ee90;fill-opacity:1;fill-rule:nonzero;stroke:black;stroke-width:0.0960359;stroke-linecap:butt;stroke-linejoin:miter;stroke-miterlimit:4;stroke-dasharray:none;stroke-opacity:1" />
    <path id="path18" d="m 104.57454,164.12454 c 0,-0.27613 -0.22392,-0.49868 -0.49868,-0.49868 -0.2758,0 -0.49868,0.22255 -0.49868,0.49868 0,0.27477 0.22288,0.49731 0.49868,0.49731 0.27476,0 0.49868,-0.22254 0.49868,-0.49731 z" style="fill:#32cd32;fill-opacity:1;fill-rule:nonzero;stroke:black;stroke-width:0.138878;stroke-linecap:butt;stroke-linejoin:miter;stroke-miterlimit:4;stroke-dasharray:none;stroke-opacity:1" />
    <text id="text20" xml:space="preserve" x="75.139107" y="137.0985" style="font-style:normal;font-variant:normal;font-weight:normal;font-stretch:normal;font-size:2.82222px;font-family:Arial;-inkscape-font-specification:'Arial, Normal';font-variant-ligatures:normal;font-variant-caps:normal;font-variant-numeric:normal;font-variant-east-asian:normal;stroke-width:0.352778;fill:#1a1a1a"><tspan style="font-style:normal;font-variant:normal;font-weight:bold;font-stretch:normal;font-size:2.82222px;font-family:Arial;-inkscape-font-specification:'Arial Bold';font-variant-ligatures:normal;font-variant-caps:normal;font-variant-numeric:normal;font-variant-east-asian:normal;writing-mode:lr-tb;fill:#1a1a1a;fill-opacity:1;fill-rule:nonzero;stroke:none;stroke-width:0.352778" sodipodi:role="line" id="tspan20" x="75.139107" y="137.0985">Variovorax mutants</tspan></text>
    <text id="text20-3" xml:space="preserve" x="89.067467" y="153.15024" style="font-style:normal;font-variant:normal;font-weight:normal;font-stretch:normal;font-size:2.82222px;font-family:Arial;-inkscape-font-specification:'Arial, Normal';font-variant-ligatures:normal;font-variant-caps:normal;font-variant-numeric:normal;font-variant-east-asian:normal;stroke-width:0.352778;fill:#1a1a1a"><tspan style="font-style:normal;font-variant:normal;font-weight:bold;font-stretch:normal;font-size:2.82222px;font-family:Arial;-inkscape-font-specification:'Arial Bold';font-variant-ligatures:normal;font-variant-caps:normal;font-variant-numeric:normal;font-variant-east-asian:normal;writing-mode:lr-tb;fill:#1a1a1a;fill-opacity:1;fill-rule:nonzero;stroke:none;stroke-width:0.352778" sodipodi:role="line" id="tspan20-3" x="89.067467" y="153.15024">Microbiome</tspan></text>
    <text id="text20-7" xml:space="preserve" x="111.65405" y="142.48061" style="font-style:normal;font-variant:normal;font-weight:normal;font-stretch:normal;font-size:2.82222px;font-family:Arial;-inkscape-font-specification:'Arial, Normal';font-variant-ligatures:normal;font-variant-caps:normal;font-variant-numeric:normal;font-variant-east-asian:normal;stroke-width:0.352778;fill:#1a1a1a"><tspan style="font-style:normal;font-variant:normal;font-weight:bold;font-stretch:normal;font-size:2.82222px;font-family:Arial;-inkscape-font-specification:'Arial Bold';font-variant-ligatures:normal;font-variant-caps:normal;font-variant-numeric:normal;font-variant-east-asian:normal;text-align:center;writing-mode:lr-tb;text-anchor:middle;fill:#1a1a1a;fill-opacity:1;fill-rule:nonzero;stroke:none;stroke-width:0.352778" sodipodi:role="line" id="tspan20-5" x="111.65405" y="142.48061">Arabidopsis</tspan><tspan style="font-style:normal;font-variant:normal;font-weight:bold;font-stretch:normal;font-size:2.82222px;font-family:Arial;-inkscape-font-specification:'Arial Bold';font-variant-ligatures:normal;font-variant-caps:normal;font-variant-numeric:normal;font-variant-east-asian:normal;text-align:center;writing-mode:lr-tb;text-anchor:middle;fill:#1a1a1a;fill-opacity:1;fill-rule:nonzero;stroke:none;stroke-width:0.352778" sodipodi:role="line" x="111.65405" y="146.00838" id="tspan4">variants</tspan></text>
    <path id="path28" d="m 111.15371,127.22252 v 5.20654" style="fill:none;stroke:black;stroke-width:0.162786;stroke-linecap:butt;stroke-linejoin:miter;stroke-miterlimit:4;stroke-dasharray:none;stroke-opacity:1" />
    <path id="path29" d="m 111.12982,132.43156 0.62804,1.0787" style="fill:#6b8e23;fill-opacity:1;fill-rule:nonzero;stroke:black;stroke-width:0.162786;stroke-linecap:butt;stroke-linejoin:miter;stroke-miterlimit:4;stroke-dasharray:none;stroke-opacity:1" />
    <path id="path30" d="m 111.13255,131.91558 0.58367,0.42002" style="fill:#6b8e23;fill-opacity:1;fill-rule:nonzero;stroke:black;stroke-width:0.162786;stroke-linecap:butt;stroke-linejoin:miter;stroke-miterlimit:4;stroke-dasharray:none;stroke-opacity:1" />
    <path id="path31" d="m 111.17385,131.91558 -0.58265,0.42002" style="fill:#6b8e23;fill-opacity:1;fill-rule:nonzero;stroke:black;stroke-width:0.162786;stroke-linecap:butt;stroke-linejoin:miter;stroke-miterlimit:4;stroke-dasharray:none;stroke-opacity:1" />
    <path id="path32" d="m 111.17385,131.40099 -0.58265,0.42141" style="fill:#6b8e23;fill-opacity:1;fill-rule:nonzero;stroke:black;stroke-width:0.162786;stroke-linecap:butt;stroke-linejoin:miter;stroke-miterlimit:4;stroke-dasharray:none;stroke-opacity:1" />
    <path id="path33" d="m 111.13255,130.55957 0.58367,0.42001" style="fill:#6b8e23;fill-opacity:1;fill-rule:nonzero;stroke:black;stroke-width:0.162786;stroke-linecap:butt;stroke-linejoin:miter;stroke-miterlimit:4;stroke-dasharray:none;stroke-opacity:1" />
    <path id="path34" d="m 111.17385,132.42906 -0.58265,0.42141" style="fill:#6b8e23;fill-opacity:1;fill-rule:nonzero;stroke:black;stroke-width:0.162786;stroke-linecap:butt;stroke-linejoin:miter;stroke-miterlimit:4;stroke-dasharray:none;stroke-opacity:1" />
    <path id="path35" d="m 112.76444,126.43845 c 0.0905,0.19729 -0.20958,0.5468 -0.67071,0.7813 -0.46284,0.23347 -0.9093,0.26385 -1.00146,0.0666 -0.0905,-0.19729 0.20958,-0.54646 0.67208,-0.78131 0.46147,-0.23312 0.9093,-0.26384 1.00009,-0.0666 z" style="fill:#a05a2c;fill-opacity:1;fill-rule:nonzero;stroke:none;stroke-width:0.352778" />
    <path id="path36" d="m 112.67911,126.56644 c 0.072,0.17852 -0.2106,0.47582 -0.63214,0.66014 -0.4212,0.18533 -0.82124,0.19046 -0.89326,0.0105 -0.072,-0.18022 0.2106,-0.47615 0.63214,-0.6615 0.4212,-0.18534 0.82124,-0.18909 0.89326,-0.01 z" style="fill:#f4e3d7;fill-opacity:1;fill-rule:nonzero;stroke:none;stroke-width:0.352778" />
    <path id="path37" d="m 112.85114,126.8279 c 0.0505,0.21197 -0.31061,0.49049 -0.80827,0.62259 -0.49732,0.13072 -0.94104,0.0652 -0.99327,-0.14678 -0.0505,-0.21196 0.31061,-0.49049 0.80827,-0.62257 0.49732,-0.13074 0.94104,-0.0655 0.99327,0.14676 z" style="fill:#c87137;fill-opacity:1;fill-rule:nonzero;stroke:none;stroke-width:0.352778" />
    <path id="path38" d="m 112.23777,125.90631 c -0.11878,0.25601 -0.63863,0.26556 -1.16257,0.0228 -0.52291,-0.24269 -0.85229,-0.64545 -0.73488,-0.90009 0.11879,-0.25599 0.63863,-0.26521 1.16257,-0.0225 0.52428,0.24268 0.8523,0.64511 0.73488,0.89974 z" style="fill:#6b8e23;fill-opacity:1;fill-rule:nonzero;stroke:none;stroke-width:0.352778" />
    <path id="path39" d="m 110.69254,125.19192 1.19306,0.55192" style="fill:black;fill-opacity:1;fill-rule:nonzero;stroke:black;stroke-width:0.038187;stroke-linecap:butt;stroke-linejoin:miter;stroke-miterlimit:4;stroke-dasharray:none;stroke-opacity:1" />
    <path id="path40" d="m 112.28453,125.90631 c 0.11844,0.25601 0.63863,0.26556 1.16257,0.0228 0.52257,-0.24269 0.85195,-0.64545 0.73317,-0.90009 -0.11742,-0.25599 -0.63726,-0.26521 -1.1612,-0.0225 -0.52394,0.24268 -0.85196,0.64511 -0.73454,0.89974 z" style="fill:#6b8e23;fill-opacity:1;fill-rule:nonzero;stroke:none;stroke-width:0.352778" />
    <path id="path41" d="m 113.82977,125.19192 -1.1934,0.55192" style="fill:black;fill-opacity:1;fill-rule:nonzero;stroke:black;stroke-width:0.038187;stroke-linecap:butt;stroke-linejoin:miter;stroke-miterlimit:4;stroke-dasharray:none;stroke-opacity:1" />
    <path id="path42" d="m 112.26303,125.76364 v 0.89223" style="fill:none;stroke:#6b8e23;stroke-width:0.47879;stroke-linecap:butt;stroke-linejoin:miter;stroke-miterlimit:4;stroke-dasharray:none;stroke-opacity:1" />
    <path id="path43" d="m 117.46938,132.22584 v 5.20654" style="fill:none;stroke:black;stroke-width:0.162786;stroke-linecap:butt;stroke-linejoin:miter;stroke-miterlimit:4;stroke-dasharray:none;stroke-opacity:1" />
    <path id="path44" d="m 117.44548,137.43488 0.62805,1.0787" style="fill:#6b8e23;fill-opacity:1;fill-rule:nonzero;stroke:black;stroke-width:0.162786;stroke-linecap:butt;stroke-linejoin:miter;stroke-miterlimit:4;stroke-dasharray:none;stroke-opacity:1" />
    <path id="path45" d="m 117.44821,136.9189 0.58402,0.42002" style="fill:#6b8e23;fill-opacity:1;fill-rule:nonzero;stroke:black;stroke-width:0.162786;stroke-linecap:butt;stroke-linejoin:miter;stroke-miterlimit:4;stroke-dasharray:none;stroke-opacity:1" />
    <path id="path46" d="m 117.48951,136.9189 -0.58264,0.42002" style="fill:#6b8e23;fill-opacity:1;fill-rule:nonzero;stroke:black;stroke-width:0.162786;stroke-linecap:butt;stroke-linejoin:miter;stroke-miterlimit:4;stroke-dasharray:none;stroke-opacity:1" />
    <path id="path47" d="m 117.48951,136.40431 -0.58264,0.42141" style="fill:#6b8e23;fill-opacity:1;fill-rule:nonzero;stroke:black;stroke-width:0.162786;stroke-linecap:butt;stroke-linejoin:miter;stroke-miterlimit:4;stroke-dasharray:none;stroke-opacity:1" />
    <path id="path48" d="m 117.44821,135.56289 0.58402,0.42001" style="fill:#6b8e23;fill-opacity:1;fill-rule:nonzero;stroke:black;stroke-width:0.162786;stroke-linecap:butt;stroke-linejoin:miter;stroke-miterlimit:4;stroke-dasharray:none;stroke-opacity:1" />
    <path id="path49" d="m 117.48951,137.43238 -0.58264,0.42141" style="fill:#6b8e23;fill-opacity:1;fill-rule:nonzero;stroke:black;stroke-width:0.162786;stroke-linecap:butt;stroke-linejoin:miter;stroke-miterlimit:4;stroke-dasharray:none;stroke-opacity:1" />
    <path id="path50" d="m 119.0801,131.44177 c 0.0908,0.19729 -0.20923,0.5468 -0.6707,0.7813 -0.46114,0.23347 -0.9093,0.26385 -1.00112,0.0666 -0.0908,-0.19729 0.20923,-0.54646 0.67173,-0.78131 0.46148,-0.23312 0.9093,-0.26384 1.00009,-0.0666 z" style="fill:#a05a2c;fill-opacity:1;fill-rule:nonzero;stroke:none;stroke-width:0.352778" />
    <path id="path51" d="m 118.99477,131.56976 c 0.072,0.17852 -0.21059,0.47582 -0.63214,0.66014 -0.42119,0.18533 -0.82124,0.19046 -0.89325,0.0106 -0.072,-0.18022 0.2106,-0.47615 0.63214,-0.6615 0.4212,-0.18534 0.82123,-0.18909 0.89325,-0.01 z" style="fill:#f4e3d7;fill-opacity:1;fill-rule:nonzero;stroke:none;stroke-width:0.352778" />
    <path id="path52" d="m 119.1668,131.83122 c 0.0505,0.21197 -0.31061,0.49049 -0.80793,0.62259 -0.49731,0.13072 -0.94138,0.0652 -0.99326,-0.14678 -0.0509,-0.21196 0.31061,-0.49049 0.80793,-0.62258 0.49731,-0.13073 0.94138,-0.0655 0.99326,0.14677 z" style="fill:#c87137;fill-opacity:1;fill-rule:nonzero;stroke:none;stroke-width:0.352778" />
    <path id="path53" d="m 118.55344,130.90963 c -0.11879,0.25601 -0.63863,0.26556 -1.16257,0.0228 -0.52258,-0.24269 -0.85196,-0.64545 -0.73351,-0.90009 0.11741,-0.25599 0.6376,-0.26521 1.16154,-0.0225 0.52393,0.24268 0.85195,0.64511 0.73454,0.89974 z" style="fill:#6b8e23;fill-opacity:1;fill-rule:nonzero;stroke:none;stroke-width:0.352778" />
    <path id="path54" d="m 117.00828,130.19524 1.19305,0.55192" style="fill:black;fill-opacity:1;fill-rule:nonzero;stroke:black;stroke-width:0.038187;stroke-linecap:butt;stroke-linejoin:miter;stroke-miterlimit:4;stroke-dasharray:none;stroke-opacity:1" />
    <path id="path55" d="m 118.6002,130.90963 c 0.11844,0.25601 0.63863,0.26556 1.16256,0.0228 0.52257,-0.24269 0.85196,-0.64545 0.73318,-0.90009 -0.11708,-0.25599 -0.63726,-0.26521 -1.1612,-0.0225 -0.52395,0.24268 -0.85196,0.64511 -0.73454,0.89974 z" style="fill:#6b8e23;fill-opacity:1;fill-rule:nonzero;stroke:none;stroke-width:0.352778" />
    <path id="path56" d="m 120.1455,130.19524 -1.1934,0.55192" style="fill:black;fill-opacity:1;fill-rule:nonzero;stroke:black;stroke-width:0.038187;stroke-linecap:butt;stroke-linejoin:miter;stroke-miterlimit:4;stroke-dasharray:none;stroke-opacity:1" />
    <path id="path57" d="m 118.57869,130.76696 v 0.89223" style="fill:none;stroke:#6b8e23;stroke-width:0.47879;stroke-linecap:butt;stroke-linejoin:miter;stroke-miterlimit:4;stroke-dasharray:none;stroke-opacity:1" />
    <path id="path58" d="m 104.36088,132.91595 v 5.20655" style="fill:none;stroke:black;stroke-width:0.162786;stroke-linecap:butt;stroke-linejoin:miter;stroke-miterlimit:4;stroke-dasharray:none;stroke-opacity:1" />
    <path id="path59" d="m 104.33664,138.12499 0.62804,1.0787" style="fill:#6b8e23;fill-opacity:1;fill-rule:nonzero;stroke:black;stroke-width:0.162786;stroke-linecap:butt;stroke-linejoin:miter;stroke-miterlimit:4;stroke-dasharray:none;stroke-opacity:1" />
    <path id="path60" d="m 104.34073,137.60901 0.58265,0.42002" style="fill:#6b8e23;fill-opacity:1;fill-rule:nonzero;stroke:black;stroke-width:0.162786;stroke-linecap:butt;stroke-linejoin:miter;stroke-miterlimit:4;stroke-dasharray:none;stroke-opacity:1" />
    <path id="path61" d="m 104.38204,137.60901 -0.58401,0.42002" style="fill:#6b8e23;fill-opacity:1;fill-rule:nonzero;stroke:black;stroke-width:0.162786;stroke-linecap:butt;stroke-linejoin:miter;stroke-miterlimit:4;stroke-dasharray:none;stroke-opacity:1" />
    <path id="path62" d="m 104.38204,137.09442 -0.58401,0.42142" style="fill:#6b8e23;fill-opacity:1;fill-rule:nonzero;stroke:black;stroke-width:0.162786;stroke-linecap:butt;stroke-linejoin:miter;stroke-miterlimit:4;stroke-dasharray:none;stroke-opacity:1" />
    <path id="path63" d="m 104.34073,136.253 0.58265,0.42002" style="fill:#6b8e23;fill-opacity:1;fill-rule:nonzero;stroke:black;stroke-width:0.162786;stroke-linecap:butt;stroke-linejoin:miter;stroke-miterlimit:4;stroke-dasharray:none;stroke-opacity:1" />
    <path id="path64" d="m 104.38204,138.1225 -0.58401,0.4214" style="fill:#6b8e23;fill-opacity:1;fill-rule:nonzero;stroke:black;stroke-width:0.162786;stroke-linecap:butt;stroke-linejoin:miter;stroke-miterlimit:4;stroke-dasharray:none;stroke-opacity:1" />
    <path id="path65" d="m 105.97126,132.13188 c 0.0921,0.19729 -0.20923,0.54681 -0.67036,0.7813 -0.46148,0.23347 -0.9093,0.26385 -1.0001,0.0666 -0.0907,-0.19728 0.20923,-0.54646 0.67071,-0.7813 0.46114,-0.23313 0.9093,-0.26384 0.99975,-0.0666 z" style="fill:#a05a2c;fill-opacity:1;fill-rule:nonzero;stroke:none;stroke-width:0.352778" />
    <path id="path66" d="m 105.88593,132.25987 c 0.072,0.17853 -0.2106,0.47582 -0.6318,0.66014 -0.4212,0.18534 -0.82124,0.19046 -0.89325,0.0106 -0.072,-0.18022 0.21196,-0.47615 0.63316,-0.66149 0.42154,-0.18535 0.82123,-0.1891 0.89189,-0.01 z" style="fill:#f4e3d7;fill-opacity:1;fill-rule:nonzero;stroke:none;stroke-width:0.352778" />
    <path id="path67" d="m 106.05796,132.52133 c 0.0509,0.21197 -0.31061,0.49049 -0.80793,0.62259 -0.49732,0.13073 -0.94138,0.0652 -0.9919,-0.14678 -0.0505,-0.21196 0.31061,-0.49048 0.80792,-0.62257 0.49732,-0.13074 0.9414,-0.0655 0.99191,0.14676 z" style="fill:#c87137;fill-opacity:1;fill-rule:nonzero;stroke:none;stroke-width:0.352778" />
    <path id="path68" d="m 105.4446,131.59975 c -0.11709,0.256 -0.63863,0.26555 -1.1612,0.0228 -0.52395,-0.24269 -0.85333,-0.64545 -0.73455,-0.90009 0.11742,-0.25599 0.63862,-0.26521 1.1612,-0.0225 0.52394,0.24268 0.85332,0.64511 0.73455,0.89974 z" style="fill:#6b8e23;fill-opacity:1;fill-rule:nonzero;stroke:none;stroke-width:0.352778" />
    <path id="path69" d="m 103.90072,130.88535 1.19203,0.55193" style="fill:black;fill-opacity:1;fill-rule:nonzero;stroke:black;stroke-width:0.038187;stroke-linecap:butt;stroke-linejoin:miter;stroke-miterlimit:4;stroke-dasharray:none;stroke-opacity:1" />
    <path id="path70" d="m 105.49272,131.59975 c 0.11741,0.256 0.63726,0.26555 1.1612,0.0228 0.52428,-0.24269 0.85229,-0.64545 0.73488,-0.90009 -0.11878,-0.25599 -0.63863,-0.26521 -1.16256,-0.0225 -0.52292,0.24268 -0.8523,0.64511 -0.73352,0.89974 z" style="fill:#6b8e23;fill-opacity:1;fill-rule:nonzero;stroke:none;stroke-width:0.352778" />
    <path id="path71" d="m 107.03659,130.88535 -1.19169,0.55193" style="fill:black;fill-opacity:1;fill-rule:nonzero;stroke:black;stroke-width:0.038187;stroke-linecap:butt;stroke-linejoin:miter;stroke-miterlimit:4;stroke-dasharray:none;stroke-opacity:1" />
    <path id="path72" d="m 105.47019,131.45707 v 0.89223" style="fill:none;stroke:#6b8e23;stroke-width:0.47879;stroke-linecap:butt;stroke-linejoin:miter;stroke-miterlimit:4;stroke-dasharray:none;stroke-opacity:1" />
    <g id="g2" transform="translate(0,-3.8260448)">
      <path id="path19" d="m 79.68926,128.78007 c 0,0 -0.393211,-0.28126 -0.59869,-0.27444 -0.206505,0.007 -0.325287,0.17442 -0.506533,0.27444 -0.182611,0.10137 -0.328016,0.31334 -0.588109,0.33074 -0.261457,0.0174 -0.830794,-0.33074 -0.830794,-0.33074" style="fill:none;stroke:black;stroke-width:0.176389;stroke-linecap:butt;stroke-linejoin:miter;stroke-miterlimit:4;stroke-dasharray:none;stroke-opacity:1" />
      <path id="path20" d="m 80.499915,127.89363 h 2.960002 c 0.449193,0 0.810659,0.39594 0.810659,0.88644 0,0.49219 -0.361466,0.88676 -0.810659,0.88676 h -2.960002 c -0.449188,0 -0.810655,-0.39457 -0.810655,-0.88676 0,-0.4905 0.361467,-0.88644 0.810655,-0.88644 z" style="fill:#ffd700;fill-opacity:1;fill-rule:nonzero;stroke:black;stroke-width:0.176389;stroke-linecap:butt;stroke-linejoin:miter;stroke-miterlimit:4;stroke-dasharray:none;stroke-opacity:1" />
      <path id="path19-8" d="m 82.66753,132.1455 c 0,0 -0.39321,-0.28125 -0.59869,-0.27443 -0.206504,0.007 -0.325287,0.17442 -0.506532,0.27443 -0.182611,0.10137 -0.328017,0.31334 -0.58811,0.33075 -0.261457,0.0174 -0.830793,-0.33075 -0.830793,-0.33075" style="fill:none;stroke:black;stroke-width:0.176389;stroke-linecap:butt;stroke-linejoin:miter;stroke-miterlimit:4;stroke-dasharray:none;stroke-opacity:1" />
      <path id="path20-8" d="m 83.478186,131.25906 h 2.960002 c 0.449193,0 0.810658,0.39594 0.810658,0.88644 0,0.49219 -0.361465,0.88677 -0.810658,0.88677 h -2.960002 c -0.449188,0 -0.810656,-0.39458 -0.810656,-0.88677 0,-0.4905 0.361468,-0.88644 0.810656,-0.88644 z" style="fill:#ffd700;fill-opacity:1;fill-rule:nonzero;stroke:black;stroke-width:0.176389;stroke-linecap:butt;stroke-linejoin:miter;stroke-miterlimit:4;stroke-dasharray:none;stroke-opacity:1" />
      <text xml:space="preserve" style="font-style:normal;font-variant:normal;font-weight:normal;font-stretch:normal;font-size:2px;line-height:1.25;font-family:Arial;-inkscape-font-specification:'Arial, Normal';font-variant-ligatures:normal;font-variant-caps:normal;font-variant-numeric:normal;font-variant-east-asian:normal;fill:red;stroke-width:0.264583" x="83.160355" y="132.64404" id="text1"><tspan sodipodi:role="line" id="tspan1" style="font-style:normal;font-variant:normal;font-weight:normal;font-stretch:normal;font-size:2px;font-family:Arial;-inkscape-font-specification:'Arial, Normal';font-variant-ligatures:normal;font-variant-caps:normal;font-variant-numeric:normal;font-variant-east-asian:normal;fill:red;stroke-width:0.264583" x="83.160355" y="132.64404">x</tspan></text>
      <path id="path19-8-0" d="m 87.738762,130.01846 c 0,0 -0.393211,-0.28126 -0.59869,-0.27444 -0.206505,0.007 -0.325287,0.17442 -0.506533,0.27444 -0.182611,0.10137 -0.328016,0.31334 -0.588109,0.33074 -0.261457,0.0174 -0.830794,-0.33074 -0.830794,-0.33074" style="fill:none;stroke:black;stroke-width:0.176389;stroke-linecap:butt;stroke-linejoin:miter;stroke-miterlimit:4;stroke-dasharray:none;stroke-opacity:1" />
      <path id="path20-8-6" d="m 88.549417,129.13202 h 2.960003 c 0.449192,0 0.810658,0.39594 0.810658,0.88644 0,0.49219 -0.361466,0.88676 -0.810658,0.88676 h -2.960003 c -0.449188,0 -0.810655,-0.39457 -0.810655,-0.88676 0,-0.4905 0.361467,-0.88644 0.810655,-0.88644 z" style="fill:#ffd700;fill-opacity:1;fill-rule:nonzero;stroke:black;stroke-width:0.176389;stroke-linecap:butt;stroke-linejoin:miter;stroke-miterlimit:4;stroke-dasharray:none;stroke-opacity:1" />
      <text xml:space="preserve" style="font-style:normal;font-variant:normal;font-weight:normal;font-stretch:normal;font-size:2px;line-height:1.25;font-family:Arial;-inkscape-font-specification:'Arial, Normal';font-variant-ligatures:normal;font-variant-caps:normal;font-variant-numeric:normal;font-variant-east-asian:normal;fill:red;stroke-width:0.264583" x="90.279556" y="130.51698" id="text1-2"><tspan sodipodi:role="line" id="tspan1-2" style="font-style:normal;font-variant:normal;font-weight:normal;font-stretch:normal;font-size:2px;font-family:Arial;-inkscape-font-specification:'Arial, Normal';font-variant-ligatures:normal;font-variant-caps:normal;font-variant-numeric:normal;font-variant-east-asian:normal;fill:red;stroke-width:0.264583" x="90.279556" y="130.51698">x</tspan></text>
    </g>
    <path style="fill:#999;stroke:#999;stroke-width:0.264583px;stroke-linecap:butt;stroke-linejoin:miter;stroke-opacity:1;marker-start:url(#marker17);marker-end:url(#DartArrow)" d="m 90.105477,139.86291 2.125629,8.45279" id="path10" sodipodi:nodetypes="cc" />
    <path style="fill:#999;stroke:#999;stroke-width:0.264583px;stroke-linecap:butt;stroke-linejoin:miter;stroke-opacity:1;marker-start:url(#marker17);marker-end:url(#DartArrow)" d="m 104.36503,145.83063 -2.74828,2.96892" id="path11" sodipodi:nodetypes="cc" />
    <path style="fill:#999;stroke:#999;stroke-width:0.264583px;stroke-linecap:butt;stroke-linejoin:miter;stroke-opacity:1;marker-start:url(#marker17);marker-end:url(#DartArrow)" d="m 95.056191,139.82029 6.588709,3.00155" id="path16" sodipodi:nodetypes="cc" />
    <text xml:space="preserve" style="font-style:normal;font-variant:normal;font-weight:normal;font-stretch:normal;font-size:2.11667px;line-height:1.25;font-family:Arial;-inkscape-font-specification:'Arial, Normal';font-variant-ligatures:none;font-variant-caps:normal;font-variant-numeric:normal;font-variant-east-asian:normal;text-align:center;text-anchor:middle;stroke-width:0.264583" x="112.02707" y="124.06629" id="text2"><tspan sodipodi:role="line" id="tspan2" style="font-style:normal;font-variant:normal;font-weight:normal;font-stretch:normal;font-size:2.11667px;font-family:Arial;-inkscape-font-specification:'Arial, Normal';font-variant-ligatures:none;font-variant-caps:normal;font-variant-numeric:normal;font-variant-east-asian:normal;stroke-width:0.264583" x="112.02707" y="124.06629">col-0</tspan></text>
    <text xml:space="preserve" style="font-style:normal;font-variant:normal;font-weight:normal;font-stretch:normal;font-size:2.11667px;line-height:1.25;font-family:Arial;-inkscape-font-specification:'Arial, Normal';font-variant-ligatures:none;font-variant-caps:normal;font-variant-numeric:normal;font-variant-east-asian:normal;text-align:center;text-anchor:middle;stroke-width:0.264583" x="104.63834" y="129.5535" id="text2-4"><tspan sodipodi:role="line" id="tspan2-8" style="font-style:normal;font-variant:normal;font-weight:normal;font-stretch:normal;font-size:2.11667px;font-family:Arial;-inkscape-font-specification:'Arial, Normal';font-variant-ligatures:none;font-variant-caps:normal;font-variant-numeric:normal;font-variant-east-asian:normal;stroke-width:0.264583" x="104.63834" y="129.5535">ecotype <tspan style="font-style:normal;font-variant:normal;font-weight:bold;font-stretch:normal;font-family:Arial;-inkscape-font-specification:'Arial Bold';fill:fuchsia" id="tspan7">y</tspan></tspan></text>
    <text xml:space="preserve" style="font-style:normal;font-variant:normal;font-weight:normal;font-stretch:normal;font-size:2.11667px;line-height:1.25;font-family:Arial;-inkscape-font-specification:'Arial, Normal';font-variant-ligatures:none;font-variant-caps:normal;font-variant-numeric:normal;font-variant-east-asian:normal;text-align:center;text-anchor:middle;stroke-width:0.264583" x="118.0891" y="128.97769" id="text2-4-1"><tspan sodipodi:role="line" id="tspan2-8-8" style="font-style:normal;font-variant:normal;font-weight:normal;font-stretch:normal;font-size:2.11667px;font-family:Arial;-inkscape-font-specification:'Arial, Normal';font-variant-ligatures:none;font-variant-caps:normal;font-variant-numeric:normal;font-variant-east-asian:normal;stroke-width:0.264583" x="118.0891" y="128.97769">ecotype <tspan style="font-style:normal;font-variant:normal;font-weight:bold;font-stretch:normal;font-family:Arial;-inkscape-font-specification:'Arial Bold';fill:blue;stroke:none" id="tspan6">x</tspan></tspan></text>
    <text xml:space="preserve" style="font-size:2.11667px;line-height:1.25;font-family:Arial;-inkscape-font-specification:'Arial, Normal';font-variant-ligatures:none;text-align:center;text-anchor:middle;stroke-width:0.264583;font-weight:normal;font-style:normal;font-stretch:normal;font-variant:normal;font-variant-caps:normal;font-variant-numeric:normal;font-variant-east-asian:normal" x="86.485634" y="133.57971" id="text3"><tspan sodipodi:role="line" id="tspan3" style="fill:red;stroke-width:0.264583;-inkscape-font-specification:'Arial, Normal';font-family:Arial;font-weight:normal;font-style:normal;font-stretch:normal;font-variant:normal;font-size:2.11666995px;font-variant-ligatures:none;font-variant-caps:normal;font-variant-numeric:normal;font-variant-east-asian:normal" x="86.485634" y="133.57971">x = genetic difference</tspan></text>
    <text xml:space="preserve" style="font-style:normal;font-variant:normal;font-weight:normal;font-stretch:normal;font-size:2.11667px;line-height:1.25;font-family:Arial;-inkscape-font-specification:'Arial, Normal';font-variant-ligatures:none;font-variant-caps:normal;font-variant-numeric:normal;font-variant-east-asian:normal;text-align:center;text-anchor:middle;fill:#1a1a1a;stroke-width:0.264583" x="92.01313" y="156.74055" id="text3-9"><tspan sodipodi:role="line" id="tspan3-3" style="font-style:normal;font-variant:normal;font-weight:normal;font-stretch:normal;font-size:2.11667px;font-family:Arial;-inkscape-font-specification:'Arial, Normal';font-variant-ligatures:none;font-variant-caps:normal;font-variant-numeric:normal;font-variant-east-asian:normal;fill:#1a1a1a;stroke-width:0.264583" x="92.01313" y="156.74055">from site</tspan><tspan sodipodi:role="line" style="font-style:normal;font-variant:normal;font-weight:bold;font-stretch:normal;font-size:2.11667px;font-family:Arial;-inkscape-font-specification:'Arial Bold';font-variant-ligatures:none;font-variant-caps:normal;font-variant-numeric:normal;font-variant-east-asian:normal;fill:blue;stroke-width:0.264583" x="92.01313" y="159.3864" id="tspan5">x</tspan></text>
    <text xml:space="preserve" style="font-style:normal;font-variant:normal;font-weight:normal;font-stretch:normal;font-size:2.11667px;line-height:1.25;font-family:Arial;-inkscape-font-specification:'Arial, Normal';font-variant-ligatures:none;font-variant-caps:normal;font-variant-numeric:normal;font-variant-east-asian:normal;text-align:center;text-anchor:middle;fill:#1a1a1a;stroke-width:0.264583" x="102.2318" y="156.83653" id="text3-9-4"><tspan sodipodi:role="line" id="tspan3-3-9" style="font-style:normal;font-variant:normal;font-weight:normal;font-stretch:normal;font-size:2.11667px;font-family:Arial;-inkscape-font-specification:'Arial, Normal';font-variant-ligatures:none;font-variant-caps:normal;font-variant-numeric:normal;font-variant-east-asian:normal;fill:#1a1a1a;stroke-width:0.264583" x="102.2318" y="156.83653">from site</tspan><tspan sodipodi:role="line" style="font-style:normal;font-variant:normal;font-weight:bold;font-stretch:normal;font-size:2.11667px;font-family:Arial;-inkscape-font-specification:'Arial Bold';font-variant-ligatures:none;font-variant-caps:normal;font-variant-numeric:normal;font-variant-east-asian:normal;fill:fuchsia;stroke-width:0.264583" x="102.2318" y="159.48238" id="tspan5-3">y</tspan></text>
  </g>
</svg>
