<?xml version="1.0" encoding="UTF-8" standalone="no"?>
<!-- Created with Inkscape (http://www.inkscape.org/) -->

<svg
   width="49.449326mm"
   height="44.615269mm"
   viewBox="0 0 49.449326 44.615269"
   version="1.1"
   id="svg1"
   inkscape:version="1.3-alpha (d5f0437d, 2023-05-14)"
   sodipodi:docname="vario.svg"
   xmlns:inkscape="http://www.inkscape.org/namespaces/inkscape"
   xmlns:sodipodi="http://sodipodi.sourceforge.net/DTD/sodipodi-0.dtd"
   xmlns="http://www.w3.org/2000/svg"
   xmlns:svg="http://www.w3.org/2000/svg">
  <sodipodi:namedview
     id="namedview1"
     pagecolor="#ffffff"
     bordercolor="#000000"
     borderopacity="0.25"
     inkscape:showpageshadow="2"
     inkscape:pageopacity="0.0"
     inkscape:pagecheckerboard="0"
     inkscape:deskcolor="#d1d1d1"
     inkscape:document-units="mm"
     inkscape:zoom="2.967589"
     inkscape:cx="106.65223"
     inkscape:cy="78.683402"
     inkscape:window-width="1396"
     inkscape:window-height="1212"
     inkscape:window-x="0"
     inkscape:window-y="25"
     inkscape:window-maximized="0"
     inkscape:current-layer="layer1" />
  <defs
     id="defs1">
    <marker
       style="overflow:visible"
       id="marker17"
       refX="0"
       refY="0"
       orient="auto-start-reverse"
       inkscape:stockid="Dart arrow"
       markerWidth="8.75"
       markerHeight="5"
       viewBox="0 0 8.75 5"
       inkscape:isstock="true"
       inkscape:collect="always"
       preserveAspectRatio="xMidYMid">
      <path
         style="fill:context-stroke;fill-rule:evenodd;stroke:none"
         d="M 0,0 5,-5 -12.5,0 5,5 Z"
         transform="scale(-0.5)"
         id="path17" />
    </marker>
    <marker
       style="overflow:visible"
       id="DartArrow"
       refX="0"
       refY="0"
       orient="auto-start-reverse"
       inkscape:stockid="Dart arrow"
       markerWidth="8.75"
       markerHeight="5"
       viewBox="0 0 8.75 5"
       inkscape:isstock="true"
       inkscape:collect="always"
       preserveAspectRatio="xMidYMid">
      <path
         style="fill:context-stroke;fill-rule:evenodd;stroke:none"
         d="M 0,0 5,-5 -12.5,0 5,5 Z"
         transform="scale(-0.5)"
         id="path6" />
    </marker>
  </defs>
  <g
     inkscape:label="Layer 1"
     inkscape:groupmode="layer"
     id="layer1"
     transform="translate(-74.076843,-122.10157)">
    <g
       id="g6"
       transform="matrix(0.9675458,0,0,0.9675458,-6.8001169,10.379349)"
       style="stroke-width:1.03354">
      <path
         id="path7"
         d="m 99.174027,156.40595 1.283053,-1.06414 c 0.19438,-0.16122 0.49309,-0.11839 0.66987,0.094 0.17614,0.21238 0.16106,0.51368 -0.0333,0.67489 l -1.28141,1.06397 c -0.194381,0.16121 -0.493564,0.11997 -0.669934,-0.0934 -0.176138,-0.21237 -0.16264,-0.51414 0.03174,-0.67535 z"
         style="fill:#00bfff;fill-opacity:1;fill-rule:nonzero;stroke:#000000;stroke-width:0.0992572;stroke-linecap:butt;stroke-linejoin:miter;stroke-miterlimit:4;stroke-dasharray:none;stroke-opacity:1" />
      <path
         id="path8"
         d="m 101.39278,156.59205 1.28305,-1.06414 c 0.19403,-0.16092 0.49192,-0.1198 0.66806,0.0926 0.17766,0.21349 0.16264,0.51414 -0.0314,0.67506 l -1.28305,1.06414 c -0.19438,0.16122 -0.49192,0.1198 -0.66841,-0.0923 -0.17631,-0.21402 -0.16264,-0.51415 0.0317,-0.67536 z"
         style="fill:#7b68ee;fill-opacity:1;fill-rule:nonzero;stroke:#000000;stroke-width:0.0992572;stroke-linecap:butt;stroke-linejoin:miter;stroke-miterlimit:4;stroke-dasharray:none;stroke-opacity:1" />
      <path
         id="path8-0"
         d="m 102.99788,157.51147 1.28305,-1.06414 c 0.19403,-0.16092 0.49192,-0.1198 0.66806,0.0926 0.17766,0.21349 0.16264,0.51414 -0.0314,0.67506 l -1.28305,1.06414 c -0.19438,0.16122 -0.49192,0.1198 -0.66841,-0.0923 -0.17631,-0.21402 -0.16264,-0.51415 0.0317,-0.67536 z"
         style="fill:#7b68ee;fill-opacity:1;fill-rule:nonzero;stroke:#000000;stroke-width:0.0992572;stroke-linecap:butt;stroke-linejoin:miter;stroke-miterlimit:4;stroke-dasharray:none;stroke-opacity:1" />
      <path
         id="path8-0-3"
         d="m 102.1063,159.91873 1.28305,-1.06414 c 0.19403,-0.16092 0.49192,-0.1198 0.66806,0.0926 0.17766,0.21349 0.16264,0.51414 -0.0314,0.67506 l -1.28305,1.06414 c -0.19438,0.16122 -0.49192,0.1198 -0.66841,-0.0923 -0.17631,-0.21402 -0.16264,-0.51415 0.0317,-0.67536 z"
         style="fill:#7b68ee;fill-opacity:1;fill-rule:nonzero;stroke:#000000;stroke-width:0.0992572;stroke-linecap:butt;stroke-linejoin:miter;stroke-miterlimit:4;stroke-dasharray:none;stroke-opacity:1" />
      <path
         id="path9"
         d="m 98.906874,158.6038 1.282696,-1.06385 c 0.19438,-0.16122 0.49192,-0.1198 0.66859,0.0939 0.17649,0.21208 0.16234,0.51379 -0.032,0.675 l -1.282577,1.06256 c -0.19438,0.16122 -0.49192,0.11979 -0.669701,-0.0924 -0.176663,-0.21372 -0.161349,-0.51402 0.03303,-0.67523 z"
         style="fill:#a0522d;fill-opacity:1;fill-rule:nonzero;stroke:#000000;stroke-width:0.0992572;stroke-linecap:butt;stroke-linejoin:miter;stroke-miterlimit:4;stroke-dasharray:none;stroke-opacity:1" />
      <path
         id="path12"
         d="m 102.62736,158.45645 c 0,-0.2854 -0.23143,-0.51541 -0.51541,-0.51541 -0.28505,0 -0.51541,0.23001 -0.51541,0.51541 0,0.28398 0.23036,0.51399 0.51541,0.51399 0.28398,0 0.51541,-0.23001 0.51541,-0.51399 z"
         style="fill:#800000;fill-opacity:1;fill-rule:nonzero;stroke:#000000;stroke-width:0.143536;stroke-linecap:butt;stroke-linejoin:miter;stroke-miterlimit:4;stroke-dasharray:none;stroke-opacity:1" />
    </g>
    <g
       id="g7"
       transform="matrix(0.9675458,0,0,0.9675458,-18.389857,10.81067)"
       style="stroke-width:1.03354">
      <path
         id="path13"
         d="m 123.63716,156.40584 1.28141,-1.06396 c 0.19438,-0.16122 0.49309,-0.11839 0.66988,0.0941 0.17649,0.21207 0.16234,0.51379 -0.032,0.675 l -1.2827,1.06385 c -0.19438,0.16121 -0.49356,0.11997 -0.66958,-0.0937 -0.17649,-0.21208 -0.16135,-0.51402 0.033,-0.67524 z"
         style="fill:#e9967a;fill-opacity:1;fill-rule:nonzero;stroke:#000000;stroke-width:0.0992572;stroke-linecap:butt;stroke-linejoin:miter;stroke-miterlimit:4;stroke-dasharray:none;stroke-opacity:1" />
      <path
         id="path14"
         d="m 125.85427,156.59212 1.28306,-1.06414 c 0.19438,-0.16122 0.49321,-0.11967 0.6697,0.0924 0.17637,0.21337 0.16135,0.51403 -0.033,0.67524 l -1.2817,1.06362 c -0.19409,0.16157 -0.49328,0.12032 -0.66941,-0.0921 -0.17667,-0.21373 -0.163,-0.51386 0.0314,-0.67507 z"
         style="fill:#f5f5f5;fill-opacity:1;fill-rule:nonzero;stroke:#000000;stroke-width:0.0992572;stroke-linecap:butt;stroke-linejoin:miter;stroke-miterlimit:4;stroke-dasharray:none;stroke-opacity:1" />
      <path
         id="path15"
         d="m 123.36837,158.60387 1.2827,-1.06385 c 0.19438,-0.16122 0.49356,-0.11997 0.66993,0.0934 0.17643,0.21273 0.161,0.51432 -0.033,0.67524 l -1.28164,1.06297 c -0.19438,0.16122 -0.49321,0.11968 -0.6697,-0.0924 -0.17667,-0.21373 -0.16264,-0.51415 0.0317,-0.67536 z"
         style="fill:#90ee90;fill-opacity:1;fill-rule:nonzero;stroke:#000000;stroke-width:0.0992572;stroke-linecap:butt;stroke-linejoin:miter;stroke-miterlimit:4;stroke-dasharray:none;stroke-opacity:1" />
      <path
         id="path15-4"
         d="m 121.09675,158.13544 1.2827,-1.06385 c 0.19438,-0.16122 0.49356,-0.11997 0.66993,0.0934 0.17643,0.21273 0.161,0.51432 -0.033,0.67524 l -1.28164,1.06297 c -0.19438,0.16122 -0.49321,0.11968 -0.6697,-0.0924 -0.17667,-0.21373 -0.16264,-0.51415 0.0317,-0.67536 z"
         style="fill:#90ee90;fill-opacity:1;fill-rule:nonzero;stroke:#000000;stroke-width:0.0992572;stroke-linecap:butt;stroke-linejoin:miter;stroke-miterlimit:4;stroke-dasharray:none;stroke-opacity:1" />
      <path
         id="path15-3"
         d="m 120.91844,156.26313 1.2827,-1.06385 c 0.19438,-0.16122 0.49356,-0.11997 0.66993,0.0934 0.17643,0.21273 0.161,0.51432 -0.033,0.67524 l -1.28164,1.06297 c -0.19438,0.16122 -0.49321,0.11968 -0.6697,-0.0924 -0.17667,-0.21373 -0.16264,-0.51415 0.0317,-0.67536 z"
         style="fill:#90ee90;fill-opacity:1;fill-rule:nonzero;stroke:#000000;stroke-width:0.0992572;stroke-linecap:butt;stroke-linejoin:miter;stroke-miterlimit:4;stroke-dasharray:none;stroke-opacity:1" />
      <path
         id="path18"
         d="m 127.08897,158.45645 c 0,-0.2854 -0.23143,-0.51541 -0.51541,-0.51541 -0.28505,0 -0.51541,0.23001 -0.51541,0.51541 0,0.28398 0.23036,0.51399 0.51541,0.51399 0.28398,0 0.51541,-0.23001 0.51541,-0.51399 z"
         style="fill:#32cd32;fill-opacity:1;fill-rule:nonzero;stroke:#000000;stroke-width:0.143536;stroke-linecap:butt;stroke-linejoin:miter;stroke-miterlimit:4;stroke-dasharray:none;stroke-opacity:1" />
    </g>
    <text
       id="text19"
       xml:space="preserve"
       x="74.847267"
       y="132.4287"
       style="font-style:normal;font-variant:normal;font-weight:normal;font-stretch:normal;font-size:4.09594px;font-family:'SF Pro Display';-inkscape-font-specification:'SF Pro Display';stroke-width:0.352778"><tspan
         style="font-style:normal;font-variant:normal;font-weight:normal;font-stretch:normal;font-size:2.04798px;font-family:'SF Pro Display';-inkscape-font-specification:'SF Pro Display';writing-mode:lr-tb;fill:#ff0000;fill-opacity:1;fill-rule:nonzero;stroke:none;stroke-width:0.352778"
         x="74.847267 75.871246 76.440239 77.636223 78.205215 79.344193 80.483185 81.622177 82.761147 83.330154 83.785141 84.809128 85.37812 86.517105 86.972099 87.504227 88.073212 89.212204 89.894188 91.03318 92.172157 93.196152"
         y="132.4287"
         sodipodi:role="line"
         id="tspan19">x = genetic difference</tspan></text>
    <text
       id="text20"
       xml:space="preserve"
       x="75.759544"
       y="137.82234"
       style="font-style:normal;font-variant:normal;font-weight:normal;font-stretch:normal;font-size:4.09594px;font-family:'SF Pro Display';-inkscape-font-specification:'SF Pro Display';stroke-width:0.352778"><tspan
         style="font-style:normal;font-variant:normal;font-weight:bold;font-stretch:normal;font-size:2.04798px;font-family:'SF Pro Display';-inkscape-font-specification:'SF Pro Display';writing-mode:lr-tb;fill:#808080;fill-opacity:1;fill-rule:nonzero;stroke:none;stroke-width:0.352778"
         sodipodi:role="line"
         id="tspan20"
         x="75.759544"
         y="137.82234">Variovorax mutants</tspan></text>
    <text
       id="text20-7"
       xml:space="preserve"
       x="102.84388"
       y="142.48061"
       style="font-style:normal;font-variant:normal;font-weight:normal;font-stretch:normal;font-size:4.09594px;font-family:'SF Pro Display';-inkscape-font-specification:'SF Pro Display';stroke-width:0.352778"><tspan
         style="font-style:normal;font-variant:normal;font-weight:bold;font-stretch:normal;font-size:2.04798px;font-family:'SF Pro Display';-inkscape-font-specification:'SF Pro Display';writing-mode:lr-tb;fill:#808080;fill-opacity:1;fill-rule:nonzero;stroke:none;stroke-width:0.352778"
         sodipodi:role="line"
         id="tspan20-5"
         x="102.84388"
         y="142.48061">Arabidopsis variants</tspan></text>
    <g
       id="g5"
       transform="matrix(0.9675458,0,0,0.9675458,4.6730126,6.0661425)"
       style="stroke-width:1.03354">
      <g
         id="g2"
         transform="translate(14.800174,-17.920692)"
         style="stroke-width:1.03354">
        <path
           id="path28"
           d="m 95.252184,143.14099 v 5.38119"
           style="fill:none;stroke:#000000;stroke-width:0.168246;stroke-linecap:butt;stroke-linejoin:miter;stroke-miterlimit:4;stroke-dasharray:none;stroke-opacity:1" />
        <path
           id="path29"
           d="m 95.227489,148.52476 0.649112,1.11488"
           style="fill:#6b8e23;fill-opacity:1;fill-rule:nonzero;stroke:#000000;stroke-width:0.168246;stroke-linecap:butt;stroke-linejoin:miter;stroke-miterlimit:4;stroke-dasharray:none;stroke-opacity:1" />
        <path
           id="path30"
           d="m 95.230312,147.99147 0.60325,0.43411"
           style="fill:#6b8e23;fill-opacity:1;fill-rule:nonzero;stroke:#000000;stroke-width:0.168246;stroke-linecap:butt;stroke-linejoin:miter;stroke-miterlimit:4;stroke-dasharray:none;stroke-opacity:1" />
        <path
           id="path31"
           d="m 95.272998,147.99147 -0.602192,0.43411"
           style="fill:#6b8e23;fill-opacity:1;fill-rule:nonzero;stroke:#000000;stroke-width:0.168246;stroke-linecap:butt;stroke-linejoin:miter;stroke-miterlimit:4;stroke-dasharray:none;stroke-opacity:1" />
        <path
           id="path32"
           d="m 95.272998,147.45962 -0.602192,0.43555"
           style="fill:#6b8e23;fill-opacity:1;fill-rule:nonzero;stroke:#000000;stroke-width:0.168246;stroke-linecap:butt;stroke-linejoin:miter;stroke-miterlimit:4;stroke-dasharray:none;stroke-opacity:1" />
        <path
           id="path33"
           d="m 95.230312,146.58998 0.60325,0.4341"
           style="fill:#6b8e23;fill-opacity:1;fill-rule:nonzero;stroke:#000000;stroke-width:0.168246;stroke-linecap:butt;stroke-linejoin:miter;stroke-miterlimit:4;stroke-dasharray:none;stroke-opacity:1" />
        <path
           id="path34"
           d="m 95.272998,148.52218 -0.602192,0.43554"
           style="fill:#6b8e23;fill-opacity:1;fill-rule:nonzero;stroke:#000000;stroke-width:0.168246;stroke-linecap:butt;stroke-linejoin:miter;stroke-miterlimit:4;stroke-dasharray:none;stroke-opacity:1" />
        <path
           id="path35"
           d="m 96.916942,142.33062 c 0.09349,0.20391 -0.216605,0.56515 -0.693208,0.80751 -0.478367,0.2413 -0.9398,0.2727 -1.03505,0.0688 -0.09349,-0.2039 0.216605,-0.56479 0.694619,-0.80751 0.476956,-0.24094 0.9398,-0.27269 1.033639,-0.0688 z"
           style="fill:#a05a2c;fill-opacity:1;fill-rule:nonzero;stroke:none;stroke-width:0.364611" />
        <path
           id="path36"
           d="m 96.828748,142.46291 c 0.07444,0.18451 -0.217664,0.49178 -0.653345,0.68228 -0.435327,0.19155 -0.848783,0.19685 -0.923219,0.0109 -0.07444,-0.18626 0.217664,-0.49212 0.653344,-0.68368 0.435328,-0.19156 0.848784,-0.19544 0.92322,-0.01 z"
           style="fill:#f4e3d7;fill-opacity:1;fill-rule:nonzero;stroke:none;stroke-width:0.364611" />
        <path
           id="path37"
           d="m 97.006548,142.73314 c 0.05221,0.21908 -0.321028,0.50694 -0.835378,0.64347 -0.513997,0.13511 -0.972608,0.0674 -1.026583,-0.1517 -0.05221,-0.21907 0.321027,-0.50694 0.835377,-0.64346 0.513998,-0.13512 0.972609,-0.0677 1.026584,0.15169 z"
           style="fill:#c87137;fill-opacity:1;fill-rule:nonzero;stroke:none;stroke-width:0.364611" />
        <path
           id="path38"
           d="m 96.372606,141.78064 c -0.122767,0.26459 -0.660047,0.27446 -1.201561,0.0236 -0.540455,-0.25083 -0.880886,-0.6671 -0.75953,-0.93028 0.122766,-0.26458 0.660047,-0.27411 1.201561,-0.0233 0.541866,0.25082 0.880886,0.66675 0.75953,0.92992 z"
           style="fill:#6b8e23;fill-opacity:1;fill-rule:nonzero;stroke:none;stroke-width:0.364611" />
        <path
           id="path39"
           d="m 94.775549,141.04228 1.233072,0.57044"
           style="fill:#000000;fill-opacity:1;fill-rule:nonzero;stroke:#000000;stroke-width:0.0394679;stroke-linecap:butt;stroke-linejoin:miter;stroke-miterlimit:4;stroke-dasharray:none;stroke-opacity:1" />
        <path
           id="path40"
           d="m 96.420937,141.78064 c 0.122414,0.26459 0.660047,0.27446 1.201561,0.0236 0.540102,-0.25083 0.880533,-0.6671 0.757766,-0.93028 -0.121355,-0.26458 -0.658636,-0.27411 -1.20015,-0.0233 -0.541513,0.25082 -0.880533,0.66675 -0.759177,0.92992 z"
           style="fill:#6b8e23;fill-opacity:1;fill-rule:nonzero;stroke:none;stroke-width:0.364611" />
        <path
           id="path41"
           d="m 98.018006,141.04228 -1.233425,0.57044"
           style="fill:#000000;fill-opacity:1;fill-rule:nonzero;stroke:#000000;stroke-width:0.0394679;stroke-linecap:butt;stroke-linejoin:miter;stroke-miterlimit:4;stroke-dasharray:none;stroke-opacity:1" />
        <path
           id="path42"
           d="m 96.398712,141.63318 v 0.92216"
           style="fill:none;stroke:#6b8e23;stroke-width:0.49485;stroke-linecap:butt;stroke-linejoin:miter;stroke-miterlimit:4;stroke-dasharray:none;stroke-opacity:1" />
        <text
           id="text42"
           xml:space="preserve"
           x="93.639442"
           y="140.11192"
           style="font-style:normal;font-variant:normal;font-weight:normal;font-stretch:normal;font-size:4.23333px;font-family:'SF Pro Display';-inkscape-font-specification:'SF Pro Display';stroke-width:0.364611"><tspan
             style="font-style:normal;font-variant:normal;font-weight:normal;font-stretch:normal;font-size:2.11667px;font-family:'SF Pro Display';-inkscape-font-specification:'SF Pro Display';writing-mode:lr-tb;fill:#808080;fill-opacity:1;fill-rule:nonzero;stroke:none;stroke-width:0.364611"
             x="93.639442 94.697777 95.874962 96.345222 97.050087"
             y="140.11192"
             sodipodi:role="line"
             id="tspan42">col-0</tspan></text>
      </g>
      <g
         id="g3"
         transform="translate(7.1326139,-12.749547)"
         style="stroke-width:1.03354">
        <path
           id="path43"
           d="m 109.44726,143.14099 v 5.38119"
           style="fill:none;stroke:#000000;stroke-width:0.168246;stroke-linecap:butt;stroke-linejoin:miter;stroke-miterlimit:4;stroke-dasharray:none;stroke-opacity:1" />
        <path
           id="path44"
           d="m 109.42256,148.52476 0.64911,1.11488"
           style="fill:#6b8e23;fill-opacity:1;fill-rule:nonzero;stroke:#000000;stroke-width:0.168246;stroke-linecap:butt;stroke-linejoin:miter;stroke-miterlimit:4;stroke-dasharray:none;stroke-opacity:1" />
        <path
           id="path45"
           d="m 109.42538,147.99147 0.60361,0.43411"
           style="fill:#6b8e23;fill-opacity:1;fill-rule:nonzero;stroke:#000000;stroke-width:0.168246;stroke-linecap:butt;stroke-linejoin:miter;stroke-miterlimit:4;stroke-dasharray:none;stroke-opacity:1" />
        <path
           id="path46"
           d="m 109.46807,147.99147 -0.60219,0.43411"
           style="fill:#6b8e23;fill-opacity:1;fill-rule:nonzero;stroke:#000000;stroke-width:0.168246;stroke-linecap:butt;stroke-linejoin:miter;stroke-miterlimit:4;stroke-dasharray:none;stroke-opacity:1" />
        <path
           id="path47"
           d="m 109.46807,147.45962 -0.60219,0.43555"
           style="fill:#6b8e23;fill-opacity:1;fill-rule:nonzero;stroke:#000000;stroke-width:0.168246;stroke-linecap:butt;stroke-linejoin:miter;stroke-miterlimit:4;stroke-dasharray:none;stroke-opacity:1" />
        <path
           id="path48"
           d="m 109.42538,146.58998 0.60361,0.4341"
           style="fill:#6b8e23;fill-opacity:1;fill-rule:nonzero;stroke:#000000;stroke-width:0.168246;stroke-linecap:butt;stroke-linejoin:miter;stroke-miterlimit:4;stroke-dasharray:none;stroke-opacity:1" />
        <path
           id="path49"
           d="m 109.46807,148.52218 -0.60219,0.43554"
           style="fill:#6b8e23;fill-opacity:1;fill-rule:nonzero;stroke:#000000;stroke-width:0.168246;stroke-linecap:butt;stroke-linejoin:miter;stroke-miterlimit:4;stroke-dasharray:none;stroke-opacity:1" />
        <path
           id="path50"
           d="m 111.11201,142.33062 c 0.0938,0.20391 -0.21625,0.56515 -0.6932,0.80751 -0.47661,0.2413 -0.9398,0.2727 -1.0347,0.0688 -0.0938,-0.2039 0.21625,-0.56479 0.69426,-0.80751 0.47696,-0.24094 0.9398,-0.27269 1.03364,-0.0688 z"
           style="fill:#a05a2c;fill-opacity:1;fill-rule:nonzero;stroke:none;stroke-width:0.364611" />
        <path
           id="path51"
           d="m 111.02382,142.46291 c 0.0744,0.18451 -0.21766,0.49178 -0.65335,0.68228 -0.43532,0.19155 -0.84878,0.19685 -0.92321,0.0109 -0.0744,-0.18626 0.21766,-0.49212 0.65334,-0.68368 0.43533,-0.19156 0.84878,-0.19544 0.92322,-0.01 z"
           style="fill:#f4e3d7;fill-opacity:1;fill-rule:nonzero;stroke:none;stroke-width:0.364611" />
        <path
           id="path52"
           d="m 111.20162,142.73314 c 0.0522,0.21908 -0.32103,0.50694 -0.83503,0.64347 -0.51399,0.13511 -0.97296,0.0674 -1.02658,-0.1517 -0.0526,-0.21907 0.32103,-0.50694 0.83503,-0.64346 0.51399,-0.13512 0.97296,-0.0677 1.02658,0.15169 z"
           style="fill:#c87137;fill-opacity:1;fill-rule:nonzero;stroke:none;stroke-width:0.364611" />
        <path
           id="path53"
           d="m 110.56768,141.78064 c -0.12277,0.26459 -0.66005,0.27446 -1.20156,0.0236 -0.54011,-0.25083 -0.88054,-0.6671 -0.75812,-0.93028 0.12135,-0.26458 0.65899,-0.27411 1.2005,-0.0233 0.54151,0.25082 0.88053,0.66675 0.75918,0.92992 z"
           style="fill:#6b8e23;fill-opacity:1;fill-rule:nonzero;stroke:none;stroke-width:0.364611" />
        <path
           id="path54"
           d="m 108.97069,141.04228 1.23307,0.57044"
           style="fill:#000000;fill-opacity:1;fill-rule:nonzero;stroke:#000000;stroke-width:0.0394679;stroke-linecap:butt;stroke-linejoin:miter;stroke-miterlimit:4;stroke-dasharray:none;stroke-opacity:1" />
        <path
           id="path55"
           d="m 110.61601,141.78064 c 0.12241,0.26459 0.66005,0.27446 1.20156,0.0236 0.5401,-0.25083 0.88053,-0.6671 0.75777,-0.93028 -0.12101,-0.26458 -0.65864,-0.27411 -1.20015,-0.0233 -0.54152,0.25082 -0.88054,0.66675 -0.75918,0.92992 z"
           style="fill:#6b8e23;fill-opacity:1;fill-rule:nonzero;stroke:none;stroke-width:0.364611" />
        <path
           id="path56"
           d="m 112.21315,141.04228 -1.23343,0.57044"
           style="fill:#000000;fill-opacity:1;fill-rule:nonzero;stroke:#000000;stroke-width:0.0394679;stroke-linecap:butt;stroke-linejoin:miter;stroke-miterlimit:4;stroke-dasharray:none;stroke-opacity:1" />
        <path
           id="path57"
           d="m 110.59378,141.63318 v 0.92216"
           style="fill:none;stroke:#6b8e23;stroke-width:0.49485;stroke-linecap:butt;stroke-linejoin:miter;stroke-miterlimit:4;stroke-dasharray:none;stroke-opacity:1" />
        <text
           id="text57"
           xml:space="preserve"
           x="105.91821"
           y="140.11192"
           style="font-style:normal;font-variant:normal;font-weight:normal;font-stretch:normal;font-size:4.23333px;font-family:'SF Pro Display';-inkscape-font-specification:'SF Pro Display';stroke-width:0.364611"><tspan
             style="font-style:normal;font-variant:normal;font-weight:normal;font-stretch:normal;font-size:2.11667px;font-family:'SF Pro Display';-inkscape-font-specification:'SF Pro Display';writing-mode:lr-tb;fill:#808080;fill-opacity:1;fill-rule:nonzero;stroke:none;stroke-width:0.364611"
             x="105.91821 107.0954 108.15373 109.33092 109.919 110.97733 112.15452 113.33171 113.91979"
             y="140.11192"
             sodipodi:role="line"
             id="tspan57">ecotype x</tspan></text>
      </g>
      <g
         id="g4"
         transform="translate(-23.180995,-12.036286)"
         style="stroke-width:1.03354">
        <path
           id="path58"
           d="m 126.21267,143.14099 v 5.38119"
           style="fill:none;stroke:#000000;stroke-width:0.168246;stroke-linecap:butt;stroke-linejoin:miter;stroke-miterlimit:4;stroke-dasharray:none;stroke-opacity:1" />
        <path
           id="path59"
           d="m 126.18762,148.52476 0.64911,1.11488"
           style="fill:#6b8e23;fill-opacity:1;fill-rule:nonzero;stroke:#000000;stroke-width:0.168246;stroke-linecap:butt;stroke-linejoin:miter;stroke-miterlimit:4;stroke-dasharray:none;stroke-opacity:1" />
        <path
           id="path60"
           d="m 126.19185,147.99147 0.60219,0.43411"
           style="fill:#6b8e23;fill-opacity:1;fill-rule:nonzero;stroke:#000000;stroke-width:0.168246;stroke-linecap:butt;stroke-linejoin:miter;stroke-miterlimit:4;stroke-dasharray:none;stroke-opacity:1" />
        <path
           id="path61"
           d="m 126.23454,147.99147 -0.6036,0.43411"
           style="fill:#6b8e23;fill-opacity:1;fill-rule:nonzero;stroke:#000000;stroke-width:0.168246;stroke-linecap:butt;stroke-linejoin:miter;stroke-miterlimit:4;stroke-dasharray:none;stroke-opacity:1" />
        <path
           id="path62"
           d="m 126.23454,147.45962 -0.6036,0.43555"
           style="fill:#6b8e23;fill-opacity:1;fill-rule:nonzero;stroke:#000000;stroke-width:0.168246;stroke-linecap:butt;stroke-linejoin:miter;stroke-miterlimit:4;stroke-dasharray:none;stroke-opacity:1" />
        <path
           id="path63"
           d="m 126.19185,146.58998 0.60219,0.4341"
           style="fill:#6b8e23;fill-opacity:1;fill-rule:nonzero;stroke:#000000;stroke-width:0.168246;stroke-linecap:butt;stroke-linejoin:miter;stroke-miterlimit:4;stroke-dasharray:none;stroke-opacity:1" />
        <path
           id="path64"
           d="m 126.23454,148.52218 -0.6036,0.43554"
           style="fill:#6b8e23;fill-opacity:1;fill-rule:nonzero;stroke:#000000;stroke-width:0.168246;stroke-linecap:butt;stroke-linejoin:miter;stroke-miterlimit:4;stroke-dasharray:none;stroke-opacity:1" />
        <path
           id="path65"
           d="m 127.87707,142.33062 c 0.0952,0.20391 -0.21625,0.56515 -0.69285,0.80751 -0.47696,0.2413 -0.9398,0.2727 -1.03364,0.0688 -0.0938,-0.2039 0.21625,-0.56479 0.69321,-0.80751 0.4766,-0.24094 0.9398,-0.27269 1.03328,-0.0688 z"
           style="fill:#a05a2c;fill-opacity:1;fill-rule:nonzero;stroke:none;stroke-width:0.364611" />
        <path
           id="path66"
           d="m 127.78888,142.46291 c 0.0744,0.18451 -0.21767,0.49178 -0.65299,0.68228 -0.43533,0.19155 -0.84879,0.19685 -0.92322,0.0109 -0.0744,-0.18626 0.21907,-0.49212 0.6544,-0.68368 0.43568,-0.19156 0.84878,-0.19544 0.92181,-0.01 z"
           style="fill:#f4e3d7;fill-opacity:1;fill-rule:nonzero;stroke:none;stroke-width:0.364611" />
        <path
           id="path67"
           d="m 127.96668,142.73314 c 0.0526,0.21908 -0.32103,0.50694 -0.83503,0.64347 -0.514,0.13511 -0.97296,0.0674 -1.02517,-0.1517 -0.0522,-0.21907 0.32103,-0.50694 0.83502,-0.64346 0.514,-0.13512 0.97297,-0.0677 1.02518,0.15169 z"
           style="fill:#c87137;fill-opacity:1;fill-rule:nonzero;stroke:none;stroke-width:0.364611" />
        <path
           id="path68"
           d="m 127.33274,141.78064 c -0.12101,0.26459 -0.66005,0.27446 -1.20015,0.0236 -0.54152,-0.25083 -0.88195,-0.6671 -0.75918,-0.93028 0.12135,-0.26458 0.66004,-0.27411 1.20015,-0.0233 0.54151,0.25082 0.88194,0.66675 0.75918,0.92992 z"
           style="fill:#6b8e23;fill-opacity:1;fill-rule:nonzero;stroke:none;stroke-width:0.364611" />
        <path
           id="path69"
           d="m 125.73708,141.04228 1.23201,0.57044"
           style="fill:#000000;fill-opacity:1;fill-rule:nonzero;stroke:#000000;stroke-width:0.0394679;stroke-linecap:butt;stroke-linejoin:miter;stroke-miterlimit:4;stroke-dasharray:none;stroke-opacity:1" />
        <path
           id="path70"
           d="m 127.38248,141.78064 c 0.12135,0.26459 0.65863,0.27446 1.20015,0.0236 0.54186,-0.25083 0.88088,-0.6671 0.75953,-0.93028 -0.12277,-0.26458 -0.66005,-0.27411 -1.20156,-0.0233 -0.54046,0.25082 -0.88089,0.66675 -0.75812,0.92992 z"
           style="fill:#6b8e23;fill-opacity:1;fill-rule:nonzero;stroke:none;stroke-width:0.364611" />
        <path
           id="path71"
           d="m 128.97813,141.04228 -1.23166,0.57044"
           style="fill:#000000;fill-opacity:1;fill-rule:nonzero;stroke:#000000;stroke-width:0.0394679;stroke-linecap:butt;stroke-linejoin:miter;stroke-miterlimit:4;stroke-dasharray:none;stroke-opacity:1" />
        <path
           id="path72"
           d="m 127.35919,141.63318 v 0.92216"
           style="fill:none;stroke:#6b8e23;stroke-width:0.49485;stroke-linecap:butt;stroke-linejoin:miter;stroke-miterlimit:4;stroke-dasharray:none;stroke-opacity:1" />
        <text
           id="text72"
           xml:space="preserve"
           x="122.70194"
           y="140.11192"
           style="font-style:normal;font-variant:normal;font-weight:normal;font-stretch:normal;font-size:4.23333px;font-family:'SF Pro Display';-inkscape-font-specification:'SF Pro Display';stroke-width:0.364611"><tspan
             style="font-style:normal;font-variant:normal;font-weight:normal;font-stretch:normal;font-size:2.11667px;font-family:'SF Pro Display';-inkscape-font-specification:'SF Pro Display';writing-mode:lr-tb;fill:#808080;fill-opacity:1;fill-rule:nonzero;stroke:none;stroke-width:0.364611"
             x="122.70194 123.87913 124.93746 126.11465 126.70273 127.76106 128.93825 130.11545 130.70352"
             y="140.11192"
             sodipodi:role="line"
             id="tspan72">ecotype y</tspan></text>
      </g>
    </g>
    <g
       id="g1"
       transform="matrix(0.9675458,0,0,0.9675458,5.7673838,4.0597002)"
       style="stroke-width:1.03354">
      <path
         id="path19"
         d="m 76.187673,125.05633 c 0,0 -0.4064,-0.29069 -0.618772,-0.28364 -0.213431,0.007 -0.336198,0.18027 -0.523523,0.28364 -0.188736,0.10477 -0.339019,0.32385 -0.607836,0.34184 -0.270227,0.018 -0.858661,-0.34184 -0.858661,-0.34184"
         style="fill:none;stroke:#000000;stroke-width:0.182306;stroke-linecap:butt;stroke-linejoin:miter;stroke-miterlimit:4;stroke-dasharray:none;stroke-opacity:1" />
      <path
         id="path20"
         d="m 77.02552,124.14016 h 3.059289 c 0.46426,0 0.83785,0.40922 0.83785,0.91617 0,0.5087 -0.37359,0.91651 -0.83785,0.91651 H 77.02552 c -0.464255,0 -0.837847,-0.40781 -0.837847,-0.91651 0,-0.50695 0.373592,-0.91617 0.837847,-0.91617 z"
         style="fill:#ffd700;fill-opacity:1;fill-rule:nonzero;stroke:#000000;stroke-width:0.182306;stroke-linecap:butt;stroke-linejoin:miter;stroke-miterlimit:4;stroke-dasharray:none;stroke-opacity:1" />
      <path
         id="path19-8"
         d="m 79.265843,128.53465 c 0,0 -0.4064,-0.29069 -0.618772,-0.28364 -0.213431,0.007 -0.336198,0.18027 -0.523523,0.28364 -0.188736,0.10477 -0.339019,0.32385 -0.607836,0.34184 -0.270227,0.018 -0.858661,-0.34184 -0.858661,-0.34184"
         style="fill:none;stroke:#000000;stroke-width:0.182306;stroke-linecap:butt;stroke-linejoin:miter;stroke-miterlimit:4;stroke-dasharray:none;stroke-opacity:1" />
      <path
         id="path20-8"
         d="m 80.10369,127.61848 h 3.059289 c 0.46426,0 0.83785,0.40922 0.83785,0.91617 0,0.5087 -0.37359,0.91651 -0.83785,0.91651 H 80.10369 c -0.464255,0 -0.837847,-0.40781 -0.837847,-0.91651 0,-0.50695 0.373592,-0.91617 0.837847,-0.91617 z"
         style="fill:#ffd700;fill-opacity:1;fill-rule:nonzero;stroke:#000000;stroke-width:0.182306;stroke-linecap:butt;stroke-linejoin:miter;stroke-miterlimit:4;stroke-dasharray:none;stroke-opacity:1" />
      <text
         xml:space="preserve"
         style="font-style:normal;font-variant:normal;font-weight:normal;font-stretch:normal;font-size:2.11667px;line-height:1.25;font-family:'SF Pro Display';-inkscape-font-specification:'SF Pro Display';fill:#ff0000;stroke-width:0.273458"
         x="79.7752"
         y="129.04991"
         id="text1"><tspan
           sodipodi:role="line"
           id="tspan1"
           style="font-style:normal;font-variant:normal;font-weight:normal;font-stretch:normal;font-size:2.11667px;font-family:'SF Pro Display';-inkscape-font-specification:'SF Pro Display';fill:#ff0000;stroke-width:0.273458"
           x="79.7752"
           y="129.04991">x</tspan></text>
      <path
         id="path19-8-0"
         d="m 84.507178,126.33626 c 0,0 -0.4064,-0.29069 -0.618772,-0.28364 -0.213431,0.007 -0.336198,0.18027 -0.523523,0.28364 -0.188736,0.10477 -0.339019,0.32385 -0.607836,0.34184 -0.270227,0.018 -0.858661,-0.34184 -0.858661,-0.34184"
         style="fill:none;stroke:#000000;stroke-width:0.182306;stroke-linecap:butt;stroke-linejoin:miter;stroke-miterlimit:4;stroke-dasharray:none;stroke-opacity:1" />
      <path
         id="path20-8-6"
         d="m 85.345025,125.42009 h 3.059289 c 0.46426,0 0.83785,0.40922 0.83785,0.91617 0,0.5087 -0.37359,0.91651 -0.83785,0.91651 h -3.059289 c -0.464255,0 -0.837847,-0.40781 -0.837847,-0.91651 0,-0.50695 0.373592,-0.91617 0.837847,-0.91617 z"
         style="fill:#ffd700;fill-opacity:1;fill-rule:nonzero;stroke:#000000;stroke-width:0.182306;stroke-linecap:butt;stroke-linejoin:miter;stroke-miterlimit:4;stroke-dasharray:none;stroke-opacity:1" />
      <text
         xml:space="preserve"
         style="font-style:normal;font-variant:normal;font-weight:normal;font-stretch:normal;font-size:2.11667px;line-height:1.25;font-family:'SF Pro Display';-inkscape-font-specification:'SF Pro Display';fill:#ff0000;stroke-width:0.273458"
         x="87.133202"
         y="126.85152"
         id="text1-2"><tspan
           sodipodi:role="line"
           id="tspan1-2"
           style="font-style:normal;font-variant:normal;font-weight:normal;font-stretch:normal;font-size:2.11667px;font-family:'SF Pro Display';-inkscape-font-specification:'SF Pro Display';fill:#ff0000;stroke-width:0.273458"
           x="87.133202"
           y="126.85152">x</tspan></text>
    </g>
    <text
       xml:space="preserve"
       style="font-style:normal;font-variant:normal;font-weight:normal;font-stretch:normal;font-size:2.04798px;line-height:1.25;font-family:'SF Pro Display';-inkscape-font-specification:'SF Pro Display';fill:#666666;stroke-width:0.264583"
       x="91.823364"
       y="156.39362"
       id="text8"><tspan
         sodipodi:role="line"
         id="tspan8"
         style="font-style:normal;font-variant:normal;font-weight:normal;font-stretch:normal;font-size:2.04798px;font-family:'SF Pro Display';-inkscape-font-specification:'SF Pro Display';text-align:center;text-anchor:middle;fill:#666666;stroke-width:0.264583"
         x="91.823364"
         y="156.39362">from site</tspan><tspan
         sodipodi:role="line"
         style="font-style:normal;font-variant:normal;font-weight:normal;font-stretch:normal;font-size:2.04798px;font-family:'SF Pro Display';-inkscape-font-specification:'SF Pro Display';text-align:center;text-anchor:middle;fill:#666666;stroke-width:0.264583"
         x="91.823364"
         y="158.9536"
         id="tspan9">x</tspan></text>
    <text
       xml:space="preserve"
       style="font-style:normal;font-variant:normal;font-weight:normal;font-stretch:normal;font-size:2.04798px;line-height:1.25;font-family:'SF Pro Display';-inkscape-font-specification:'SF Pro Display';fill:#666666;stroke-width:0.264583"
       x="101.94013"
       y="156.39362"
       id="text8-8"><tspan
         sodipodi:role="line"
         id="tspan8-4"
         style="font-style:normal;font-variant:normal;font-weight:normal;font-stretch:normal;font-size:2.04798px;font-family:'SF Pro Display';-inkscape-font-specification:'SF Pro Display';text-align:center;text-anchor:middle;fill:#666666;stroke-width:0.264583"
         x="101.94013"
         y="156.39362">from site</tspan><tspan
         sodipodi:role="line"
         style="font-style:normal;font-variant:normal;font-weight:normal;font-stretch:normal;font-size:2.04798px;font-family:'SF Pro Display';-inkscape-font-specification:'SF Pro Display';text-align:center;text-anchor:middle;fill:#666666;stroke-width:0.264583"
         x="101.94013"
         y="158.9536"
         id="tspan9-0">y</tspan></text>
    <text
       xml:space="preserve"
       style="font-style:normal;font-variant:normal;font-weight:normal;font-stretch:normal;font-size:2.04798px;line-height:1.25;font-family:'SF Pro Display';-inkscape-font-specification:'SF Pro Display';stroke-width:0.264583"
       x="91.799789"
       y="152.20879"
       id="text10"><tspan
         sodipodi:role="line"
         id="tspan10"
         style="font-style:normal;font-variant:normal;font-weight:bold;font-stretch:normal;font-size:2.04798px;font-family:'SF Pro Display';-inkscape-font-specification:'SF Pro Display';fill:#666666;stroke-width:0.264583"
         x="91.799789"
         y="152.20879">Microbiome</tspan></text>
    <path
       style="fill:none;stroke:#000000;stroke-width:0.264583px;stroke-linecap:butt;stroke-linejoin:miter;stroke-opacity:1;marker-start:url(#marker17);marker-end:url(#DartArrow)"
       d="m 86.796465,140.89698 5.434641,7.41872"
       id="path10" />
    <path
       style="fill:none;stroke:#000000;stroke-width:0.264583px;stroke-linecap:butt;stroke-linejoin:miter;stroke-opacity:1;marker-start:url(#marker17);marker-end:url(#DartArrow)"
       d="m 109.22514,145.21019 -7.50498,4.31321"
       id="path11" />
    <path
       style="fill:none;stroke:#000000;stroke-width:0.264583px;stroke-linecap:butt;stroke-linejoin:miter;stroke-opacity:1;marker-start:url(#marker17);marker-end:url(#DartArrow)"
       d="m 96.193664,138.476 4.830796,2.58792"
       id="path16" />
  </g>
</svg>
