<svg xmlns="http://www.w3.org/2000/svg" viewBox="0 0 44 44" >
<path fill="currentColor" d="M 22,0 C 9.85,0 0,9.85 0,22 0,34.15 9.85,44 22,44 34.15,44 44,34.15 44,22 44,9.85 34.15,0 22,0 Z M 18,8 H 35 L 33.980469,8.880859 C 33.980469,8.920859 34,8.96 34,9 v 5.279297 C 34.6,14.619297 35,15.26 35,16 v 6 c 0,1.1 -0.9,2 -2,2 -1.1,0 -2,-0.9 -2,-2 v -6 c 0,-0.74 0.4,-1.380703 1,-1.720703 v -3.708985 l -3.589844,3.080079 c 0.35,0.7 0.589844,1.549843 0.589844,2.589843 0,2.72 -1.519297,4.069532 -3.029297,5.269532 -0.47,0.48 -1.021484,1.000546 -1.021484,1.810546 0,0.800001 0.551172,1.250313 0.951172,1.570313 l 1.289062,1.029297 c 1.59,1.36 3.03125,2.610625 3.03125,5.140625 0,3.45 -3.290234,6.939453 -9.490234,6.939453 -5.23,0 -7.75,-2.53 -7.75,-5.25 0,-1.32 0.649297,-3.190469 2.779297,-4.480469 2.23,-1.39 5.260625,-1.579453 6.890625,-1.689453 -0.51,-0.66 -1.089844,-1.35 -1.089844,-2.5 0,-0.61 0.18914,-0.979687 0.369141,-1.429687 -0.4,0.04 -0.800157,0.08008 -1.160157,0.08008 -3.8,0 -5.970234,-2.880469 -5.990234,-5.730469 H 8 Z m 3.269531,3.240234 c -0.93,0 -1.939531,0.470704 -2.519531,1.220704 -0.61,0.76 -0.800781,1.749218 -0.800781,2.699218 0,2.46 1.421719,6.539063 4.511719,6.539063 0.91,0 1.878984,-0.439297 2.458984,-1.029297 0.82,-0.85 0.90039,-2.019922 0.90039,-2.669922 0,-2.65 -1.550781,-6.759766 -4.550781,-6.759766 z m 1.769531,16.369141 c -0.32,0 -2.269296,0.06984 -3.779296,0.589844 -0.8,0.3 -3.09961,1.17125 -3.09961,3.78125 0,2.61 2.479844,4.480469 6.339844,4.480469 3.47,0 5.300781,-1.700704 5.300781,-3.970704 0,-1.87 -1.179922,-2.859843 -3.919922,-4.839843 -0.29,-0.04 -0.471796,-0.04102 -0.841797,-0.04102 z"/>
</svg>
